<svg xmlns="http://www.w3.org/2000/svg" xmlns:xlink="http://www.w3.org/1999/xlink" data-name="Layer 1" width="1044.1300048828125" height="832.5599975585938" style=""><rect id="backgroundrect" width="100%" height="100%" x="0" y="0" fill="none" stroke="none"/><defs><linearGradient id="d33503b9-d00b-4906-a77e-d13cea74428d" x1="0.4998997151851654" y1="1.0000736713409424" x2="0.4998997151851654" y2="-0.00001938945206347853"><stop offset="0" stop-color="gray" stop-opacity="0.25"/><stop offset="0.54" stop-color="gray" stop-opacity="0.12"/><stop offset="1" stop-color="gray" stop-opacity="0.1"/></linearGradient></defs><title>business plan</title><g class="currentLayer" style=""><title>Layer 1</title><ellipse cx="502.67999267578125" cy="802.6799926757812" rx="430.7300109863281" ry="29.8799991607666" fill="#22a6b3" opacity="0.1" id="svg_1" class="" fill-opacity="1"/><path d="M34.05999755859375,94.54196408033371 c-26.84,31.42 -33.63,71.25 -34,109.44 c-0.26,26.93 3.42,56.14 25.9,76 c29.59,26.13 86.4,31.28 101.06,64.67 c13,29.67 -17.25,59.52 -46.31,80.46 s-62.43,46.58 -57,77.76 c3.44,19.91 22.31,35.54 41.13,48.66 c35.78,25 76,46.87 121.34,57.51 c82.26,19.28 171.11,-0.6800000000000007 248.19,-30.9 c47.45,-18.6 102.54,-41.43 149.66,-22.3 c12.44,5.05 23,12.68 34.47,19 c33.35,18.27 74.08,25 113.72,30.71 c58.1,8.4 119.16,15.41 175.14,0.26 s104.36,-59.46 95.79,-106.72 c-8.08,-44.52 -59.52,-73.54 -100.51,-103.95 c-14.46,-10.73 -29.18,-24.95 -25.58,-40.56 c2.8600000000000003,-12.38 16.32,-21 28.32,-29 c63.16,-42.34 109.58,-100.79 130.92,-164.88 c10.08,-30.24 13.72,-65.08 -8.77,-90.58 c-18.14,-20.57 -49.23,-30.45 -78.8,-38.58 C893.8599975585937,16.45196408033371 837.6199975585937,3.7019640803337097 779.9099975585938,0.2619640803337125 S662.5799975585937,3.3819640803337094 611.3499975585937,25.151964080333713 c-24.57,10.45 -46.84,24.21 -71.65,34.27 c-70.44,28.56 -153.44,24.72 -232,20.21 c-28.07,-1.61 -57.41,-4.47 -81.78,-16.73 c-21,-10.58 -33,-18.16 -59,-19.34 C115.95999755859376,41.25196408033371 63.23999755859376,60.321964080333714 34.05999755859375,94.54196408033371 z" fill="#22a6b3" opacity="0.1" id="svg_2" class="" fill-opacity="1"/><polygon points="414.46 310.36 413.36 312.63 406.23 327.28 331.44 480.85 204.53 791.81 186.39 791.95 313.37 480.85 399.9 303.15 406.23 306.28 413.36 309.81 414.46 310.36" fill="#535461" id="svg_3"/><polygon points="637.12 791.95 622.19 791.81 495.27 480.85 422.45 331.31 413.36 312.63 412.25 310.36 413.36 309.81 422.45 305.31 426.82 303.15 512.05 480.85 637.12 791.95" fill="#535461" id="svg_4"/><rect x="406.2300109863281" y="261.3800048828125" width="16.229999542236328" height="530.5700073242188" fill="#535461" id="svg_5"/><path d="M412.48999755859376,173.96999877929687 a20.67,20.67 0 0 0 -20.65,20.65 v7.38 a20.66,20.66 0 1 0 41.31,0 v-7.38 A20.68,20.68 0 0 0 412.48999755859376,173.96999877929687 zm15.49,28 a15.49,15.49 0 0 1 -31,0 v-7.38 a15.49,15.49 0 1 1 31,0 z" fill="#535461" id="svg_6"/><polygon points="512.05 480.85 495.27 480.85 422.45 331.31 422.45 480.85 406.23 480.85 406.23 327.28 331.44 480.85 313.37 480.85 399.9 303.15 406.23 306.28 406.23 261.38 422.45 261.38 422.45 305.31 426.82 303.15 512.05 480.85" opacity="0.1" id="svg_7"/><path d="M433.1499975585937,195.3599987792969 v6.640000000000001 a20.66,20.66 0 1 1 -41.31,0 v-6.640000000000001 h5.16 v6.640000000000001 a15.49,15.49 0 0 0 31,0 v-6.640000000000001 z" opacity="0.1" id="svg_8"/><rect x="100.44999694824219" y="196.83999633789062" width="624.0900268554688" height="281.79998779296875" fill="#535461" id="svg_9"/><rect x="111.5199966430664" y="205.69000244140625" width="600.47998046875" height="256.7200012207031" fill="#fff" id="svg_10" class=""/><g opacity="0.2" id="svg_11" class="" fill-opacity="1" fill="#8decf4" transform="translate(0.5780346989631653,0) "><rect x="170.82000732421875" y="233.60000610351562" width="28.389999389648438" height="12.930000305175781" fill="#8decf4" id="svg_12"/></g><g opacity="0.2" id="svg_13" class=""><rect x="170.82000732421875" y="258.6099853515625" width="28.389999389648438" height="12.930000305175781" fill="#6c63ff" id="svg_14"/></g><g opacity="0.2" class="" id="svg_101" fill-opacity="1" fill="#8decf4"><rect x="170.82000732421875" y="258.6099853515625" width="28.389999389648438" height="12.930000305175781" fill="#8decf4" id="svg_102"/></g><g opacity="0.2" id="svg_15" class="" fill-opacity="1" fill="#8decf4"><rect x="170.82000732421875" y="283.6099853515625" width="28.389999389648438" height="12.930000305175781" fill="#8decf4" id="svg_16"/></g><g opacity="0.2" id="svg_17" class="" fill-opacity="1" fill="#8decf4"><rect x="170.82000732421875" y="308.6099853515625" width="28.389999389648438" height="12.930000305175781" fill="#8decf4" id="svg_18"/></g><g opacity="0.2" id="svg_19" class="" fill-opacity="1" fill="#8decf4"><rect x="170.82000732421875" y="333.6199951171875" width="28.389999389648438" height="12.930000305175781" fill="#8decf4" id="svg_20"/></g><g opacity="0.2" id="svg_21" class="" fill-opacity="1" fill="#8decf4"><rect x="170.82000732421875" y="358.6199951171875" width="28.389999389648438" height="12.930000305175781" fill="#8decf4" id="svg_22"/></g><g opacity="0.2" id="svg_23" class="" fill="#8decf4" fill-opacity="1"><rect x="170.82000732421875" y="383.6199951171875" width="28.389999389648438" height="12.930000305175781" fill="#8decf4" id="svg_24" fill-opacity="1"/></g><g opacity="0.2" id="svg_25" class="" fill-opacity="1" fill="#8decf4"><rect x="170.82000732421875" y="408.6199951171875" width="28.389999389648438" height="12.930000305175781" fill="#8decf4" id="svg_26"/></g><g opacity="0.2" id="svg_27" class="" fill="#8decf4" fill-opacity="1"><rect x="224.27000427246094" y="421.55999755859375" width="28.389999389648438" height="12.930000305175781" fill="#8decf4" id="svg_28" fill-opacity="1"/></g><g opacity="0.2" id="svg_29" class="" fill-opacity="1" fill="#8decf4"><rect x="274.2799987792969" y="421.55999755859375" width="28.389999389648438" height="12.930000305175781" fill="#8decf4" id="svg_30"/></g><g opacity="0.2" id="svg_31" class="" fill="#8decf4" fill-opacity="1"><rect x="324.2799987792969" y="421.55999755859375" width="28.389999389648438" height="12.930000305175781" fill="#8decf4" id="svg_32" fill-opacity="1"/></g><g opacity="0.2" id="svg_33" class="" fill-opacity="1" fill="#8decf4"><rect x="374.2900085449219" y="421.55999755859375" width="28.389999389648438" height="12.930000305175781" fill="#8decf4" id="svg_34"/></g><g opacity="0.2" id="svg_35" class="" fill-opacity="1" fill="#8decf4"><rect x="424.2900085449219" y="421.55999755859375" width="28.389999389648438" height="12.930000305175781" fill="#8decf4" id="svg_36"/></g><g opacity="0.2" id="svg_37" class="" fill-opacity="1" fill="#8decf4"><rect x="474.29998779296875" y="421.55999755859375" width="28.389999389648438" height="12.930000305175781" fill="#8decf4" id="svg_38"/></g><g opacity="0.2" id="svg_39" class="" fill-opacity="1" fill="#8decf4"><rect x="524.2999877929688" y="421.55999755859375" width="28.389999389648438" height="12.930000305175781" fill="#8decf4" id="svg_40"/></g><g opacity="0.2" id="svg_41" class="" fill-opacity="1" fill="#8decf4"><rect x="574.3099975585938" y="421.55999755859375" width="28.389999389648438" height="12.930000305175781" fill="#8decf4" id="svg_42"/></g><g opacity="0.2" id="svg_43" class="" fill-opacity="1" fill="#8decf4"><rect x="624.3099975585938" y="421.55999755859375" width="28.389999389648438" height="12.930000305175781" fill="#8decf4" id="svg_44"/></g><rect x="224.27000427246094" y="327.5799865722656" width="28.389999389648438" height="81.04000091552734" fill="#22a6b3" id="svg_45" class="" fill-opacity="1"/><rect x="274.2799987792969" y="290.0799865722656" width="28.389999389648438" height="118.55000305175781" fill="#22a6b3" id="svg_46" class="" fill-opacity="1"/><rect x="324.2799987792969" y="258.6099853515625" width="28.389999389648438" height="150.02000427246094" fill="#22a6b3" id="svg_47" class="" fill-opacity="1"/><rect x="374.2900085449219" y="274.9200134277344" width="28.389999389648438" height="133.6999969482422" fill="#22a6b3" id="svg_48" class="" fill-opacity="1"/><rect x="424.2900085449219" y="246.5399932861328" width="28.389999389648438" height="162.08999633789062" fill="#22a6b3" id="svg_49" class="" fill-opacity="1"/><g opacity="0.2" id="svg_50" class="" fill-opacity="1" fill="#22a6b3"><rect x="474.29998779296875" y="308.6099853515625" width="28.389999389648438" height="100.01000213623047" fill="#22a6b3" id="svg_51"/></g><g opacity="0.2" id="svg_52" class="" fill-opacity="1" fill="#22a6b3"><rect x="524.2999877929688" y="308.6099853515625" width="28.389999389648438" height="100.01000213623047" fill="#22a6b3" id="svg_53"/></g><g opacity="0.2" id="svg_54" class="" fill-opacity="1" fill="#22a6b3"><rect x="574.3099975585938" y="308.6099853515625" width="28.389999389648438" height="100.01000213623047" fill="#22a6b3" id="svg_55"/></g><g opacity="0.2" id="svg_56" class="" fill-opacity="1" fill="#22a6b3"><rect x="624.3099975585938" y="308.6099853515625" width="28.389999389648438" height="100.01000213623047" fill="#22a6b3" id="svg_57"/></g><polygon points="621.05 308.39 377.95 323.35 377.95 328.09 626.23 318.24 621.05 308.39" fill="#535461" id="svg_58"/><path d="M908.8699975585937,407.1499987792969 s12.72,-20.92 9.34,-53.74 s-15.61,-85.94 -15.61,-85.94 s5.3100000000000005,-29.76 -23.49,-33.94 c0,0 -17.9,-3.33 -30.7,-11.38 c-4.76,-3 -8.81,-6.63 -11,-11 c0,0 -0.17,0.49000000000000005 -0.5,1.3900000000000001 a15.870000000000001,15.870000000000001 0 0 1 -0.78,-1.3900000000000001 s-0.07,0.18000000000000002 -0.18000000000000002,0.5 L831.0599975585938,204.02999877929688 s-0.6700000000000002,0.7100000000000001 -1.8,1.8800000000000001 a50.88,50.88 0 0 1 -5,-9 a26,26 0 0 0 3.5700000000000003,-1.1400000000000001 a7,7 0 0 0 2.91,-1.86 a7.38,7.38 0 0 0 1.32,-3.29 a40,40 0 0 0 0.6600000000000001,-11.56 c-0.27,-3 -0.8800000000000001,-6 -0.6700000000000002,-9.05 c0.22000000000000003,-3.25 1.37,-6.39 1.53,-9.65 c0.28,-5.74 -2.5700000000000003,-11.2 -6.09,-15.75 c-2.1,-2.71 -4.46,-5.23 -6.28,-8.13 c-1.58,-2.52 -2.73,-5.3 -4.43,-7.75 c-4,-5.7 -10.67,-9.06 -17.51,-10.25 s-13.88,-0.45 -20.73,0.6800000000000002 c-6,1 -12,2.45 -18,2.8 c-5.24,0.30000000000000004 -9.51,-1.47 -14.31,2 a13.84,13.84 0 0 0 -5.58,10 a5.29,5.29 0 0 0 0.15000000000000002,2 a14.37,14.37 0 0 0 1,1.9500000000000002 c2.13,4.2 -1.11,9.19 -0.6900000000000002,13.88 a9.27,9.27 0 0 0 8.2,8.08 c-0.19000000000000003,0.4 -0.4,0.79 -0.5800000000000001,1.2 a41.48,41.48 0 0 0 33.87,58.07 l1.86,1.4300000000000002 c4.2,3.25 8.92,7.14 13.47,11.37 l-0.09000000000000002,0.07 l-0.7400000000000001,-0.42000000000000004 a39.84,39.84 0 0 1 -4.36,3 c-4.21,2.58 -11,5.93 -18.64,6.3100000000000005 c0,0 -13.68,7.25 -18.39,31.16 c-6.76,6.06 -21.23,17 -40.35,19.85 c-26.87,4 -60,5.3100000000000005 -60,5.3100000000000005 s-0.27,0.48000000000000004 -0.6500000000000001,1.36 l-3.06,-0.56 s0,0.37000000000000005 -0.13,1 l-1.2,-0.54 c-9.49,-4.15 -28.45,-10.2 -30.85,6.47 c-3.22,22.36 18.1,19.79 18.1,19.79 a99.42,99.42 0 0 1 12.93,-3.93 l1.19,-0.23 a6.62,6.62 0 0 0 0.8400000000000001,1.6400000000000001 h2.9 a34.23,34.23 0 0 0 3.63,5.9 l67.58,-1.48 s11.55,-2.52 22.21,-0.92 c-4.65,34.76 -10.14,72.88 -10.14,72.88 S727.2099975585937,458.9699987792969 735.2599975585938,465.2799987792969 a122.5,122.5 0 0 1 14.26,-3.8200000000000003 a64.9,64.9 0 0 0 1.18,11.11 L755.8499975585937,506.2799987792969 s2,34.44 8.69,55 l5.9,28.1 l4.94,21.24 l2.7800000000000002,36.05 a342.38,342.38 0 0 1 8.26,46.44 c2.6100000000000003,24.22 16.78,63.36 18.67,68.51 c-4.84,6.85 -14.78,18.47 -27.25,19.67 c-17.8,1.7200000000000002 -18.23,12.45 -5.79,16.31 s38.62,0 38.62,0 l36.92,-9.13 c-1.11,6.8100000000000005 -1.6900000000000002,12.19 -0.8800000000000001,12.77 c2.36,1.7200000000000002 38.19,11 39.48,-3.8600000000000003 q0.15000000000000002,-1.84 0.27,-3.5700000000000003 a75.59,75.59 0 0 0 -3.75,-28.1 c-0.29000000000000004,-0.8900000000000001 -0.55,-1.79 -0.78,-2.6900000000000004 a16.59,16.59 0 0 0 1.46,-1.8900000000000001 s2.58,-40.12 4.51,-54.5 c0.15000000000000002,-1.15 0.25,-2.55 0.30000000000000004,-4.13 c0.8900000000000001,-17.24 -5.4,-62.59 -5.4,-62.59 s-7.77,-29.5 -7.48,-43.06 a12.94,12.94 0 0 1 0.5700000000000001,-3.3200000000000003 s0,-0.27 -0.1,-0.7200000000000001 c0,-0.19000000000000003 0.09000000000000002,-0.39000000000000007 0.15000000000000002,-0.5700000000000001 c0,0 -3.94,-27 -3.39,-43.06 a33.31,33.31 0 0 1 1,-7.1 a46.65,46.65 0 0 0 0.9500000000000001,-9.27 c0.5,-11 -0.08000000000000002,-30 -0.8800000000000001,-47.82 c0.09000000000000002,-0.30000000000000004 0.18000000000000002,-0.6000000000000001 0.25,-0.9500000000000001 a9.3,9.3 0 0 0 -0.49000000000000005,-4.2 c-0.06000000000000001,-1.15 -0.11000000000000001,-2.29 -0.17,-3.42 c0.33000000000000007,-1.13 0.6000000000000001,-2.33 0.8400000000000001,-3.5700000000000003 l0.52,0 l0,0.07 s33.62,-1.61 41.35,-10.620000000000001 c0,0 -7.8100000000000005,-24.27 -12.14,-44 zM763.9899975585937,331.65999877929687 l-0.53,-0.19000000000000003 c0.8500000000000001,-3 1.86,-6.49 3,-10.15 C765.4899975585937,325.2799987792969 764.6499975585938,328.8799987792969 763.9899975585937,331.65999877929687 zm34.12,-99.49 l0.15000000000000002,0.14 l-0.16000000000000003,-0.09000000000000002 zm42,520.52 c-1.81,-6.23 -9,-31.63 -8.77,-43.74 a12.34,12.34 0 0 1 0.55,-3.1 a23.16,23.16 0 0 0 1,-6.77 c0.7200000000000001,-12.64 -4.12,-35.29 -4.12,-35.29 s-10.83,-30.55 -10,-54.81 c0,-0.6100000000000001 0.07,-1.22 0.11000000000000001,-1.83 c0.18000000000000002,-2.3 0.32000000000000006,-4.79 0.42000000000000004,-7.42 v-0.05000000000000001 c0.41000000000000003,-9.37 0.32000000000000006,-20.65 0.05000000000000001,-31.17 l-0.06000000000000001,-0.39000000000000007 c-0.37000000000000005,-13.93 -1.06,-26.47 -1.35,-31.43 c1,7.17 7.4,51.8 10.16,59.1 c0,0 1.51,20.59 8.37,38 l7.52,45.26 s1.9300000000000002,53.86 5.14,69.09 c1.44,6.78 2.66,11.35 3.5700000000000003,14.33 c-1.3,6.07 -3.4,16.24 -4.8100000000000005,24.66 C847.0599975585938,781.6399987792969 844.1399975585938,760.7199987792969 840.1199975585937,752.6899987792968 z" fill="url(#d33503b9-d00b-4906-a77e-d13cea74428d)" id="svg_59"/><path d="M807.9599975585937,754.0799987792968 s-12.55,22.75 -30.2,24.45 s-18.07,12.33 -5.74,16.16 s38.28,0 38.28,0 l37,-9.14 s-4.47,-36.58 -10.42,-38.49 S807.9599975585937,754.0799987792968 807.9599975585937,754.0799987792968 z" fill="#4c4c78" id="svg_60"/><path d="M853.0599975585938,754.4999987792969 s-9.36,42.1 -7,43.81 s37.85,10.84 39.13,-3.83 q0.15000000000000002,-1.85 0.27,-3.54 a75.06,75.06 0 0 0 -3.72,-27.85 c-1,-3 -1.7000000000000002,-6.21 -1.44,-8.59 C880.8899975585938,748.5499987792969 853.0599975585938,754.4999987792969 853.0599975585938,754.4999987792969 z" fill="#4c4c78" id="svg_61"/><path d="M841.4499975585937,221.48999877929688 s-28.71,70.52 -23.6,47.87 c3.38,-15 -18.47,-34.93 -33.58,-46.64 c-7.69,-6 -13.63,-9.81 -13.63,-9.81 s53.9,-62.84 50.08,-35.73 a40.83,40.83 0 0 0 2.94,21.88 C829.6099975585937,213.19999877929686 841.4499975585937,221.48999877929688 841.4499975585937,221.48999877929688 z" fill="#ffb9b9" id="svg_62"/><path d="M658.0599975585938,321.66999877929686 c-1.52,-0.39000000000000007 -4,-0.14 -6.57,0.41000000000000003 a98.72,98.72 0 0 0 -12.81,3.89 s-21.13,2.55 -17.94,-19.61 c2.37,-16.52 21.16,-10.52 30.57,-6.42 c3.2,1.4100000000000001 5.32,2.59 5.32,2.59 z" fill="#ffb9b9" id="svg_63"/><path d="M658.0599975585938,321.66999877929686 c-1.52,-0.39000000000000007 -4,-0.14 -6.57,0.41000000000000003 c-2.3,-5.8 -0.55,-19.55 -0.18000000000000002,-22.14 c3.2,1.4100000000000001 5.32,2.59 5.32,2.59 z" opacity="0.1" id="svg_64"/><path d="M658.1499975585938,300.5099987792969 l-5.53,-1 s-2.83,19 0.8700000000000001,24 h6.36 z" fill="#cbcdda" id="svg_65"/><path d="M769.0599975585938,335.17999877929685 s-16.9,-10.11 -18.92,2.6500000000000004 s-4.68,34.56 -4.68,34.56 l-4.68,27.75 l-6.06,55.6 l0.8500000000000001,9.46 s18,-6.06 22.22,-3.93 s7.66,-23.39 7.66,-23.39 l7,-26.37 l1.06,-55.92 z" fill="#4c4c78" id="svg_66"/><path d="M769.0599975585938,335.17999877929685 s-16.9,-10.11 -18.92,2.6500000000000004 s-4.68,34.56 -4.68,34.56 l-4.68,27.75 l-6.06,55.6 l0.8500000000000001,9.46 s18,-6.06 22.22,-3.93 s7.66,-23.39 7.66,-23.39 l7,-26.37 l1.06,-55.92 z" opacity="0.1" id="svg_67"/><path d="M759.9499975585937,269.67999877929685 s-17.54,19.78 -44.17,23.76 s-59.49,5.27 -59.49,5.27 s-8.29,14.83 3.67,30.62 l67,-1.48 s14.83,-3.22 26.32,0 z" fill="#4c4c78" id="svg_68"/><path d="M759.9499975585937,269.67999877929685 s-17.54,19.78 -44.17,23.76 s-59.49,5.27 -59.49,5.27 s-8.29,14.83 3.67,30.62 l67,-1.48 s14.83,-3.22 26.32,0 z" opacity="0.05" id="svg_69"/><path d="M614.3499975585937,350.85999877929686 " fill="none" stroke="blue" stroke-miterlimit="10" id="svg_70"/><path d="M820.8199975585937,198.44999877929686 c-6.54,14 -17.91,24.32 -34.4,24.32 c-0.7300000000000001,0 -1.44,0 -2.15,-0.05000000000000001 c-7.69,-6 -13.63,-9.81 -13.63,-9.81 s53.9,-62.84 50.08,-35.73 C819.5399975585938,185.47999877929686 818.1899975585937,192.21999877929687 820.8199975585937,198.44999877929686 z" opacity="0.1" id="svg_71"/><path d="M827.4999975585938,180.39999877929688 A41.09,41.09 0 1 1 786.4199975585938,139.27999877929688 A41,41 0 0 1 827.4999975585938,180.39999877929688 z" fill="#ffb9b9" id="svg_72"/><path d="M852.6099975585937,431.4999987792969 s-91.64,8.09 -95,-3.6100000000000003 s9.35,-43.38 9.35,-43.38 L762.8199975585937,340.2799987792969 l-0.15000000000000002,-1.6900000000000002 s11.48,-47.85 11.06,-51.67 c-0.4,-3.44 18.48,-43.59 22.36,-51.8 c0.46,-0.9500000000000001 0.7000000000000001,-1.47 0.7000000000000001,-1.47 l0.7300000000000001,0.42000000000000004 l0.32000000000000006,0.19000000000000003 l4.49,2.62 L820.0599975585938,232.67999877929685 l21.37,-11.19 l2,122.41 z" fill="#cbcdda" id="svg_73"/><path d="M804.9799975585937,235.1299987792969 s-6.27,-1.7000000000000002 -8.72,4.57 a65,65 0 0 1 -3.4,7.87 l-2.44,14.56 l-4.47,23 l-3.3,101.75 l1.49,18.07 l8.19,-14.56 L793.8199975585937,295.2799987792969 V283.4499987792969 a85.64,85.64 0 0 1 6.82,-29.7 l1.1400000000000001,-2.67 l7.12,-9.15 z" opacity="0.1" id="svg_74"/><path d="M803.7099975585937,233.84999877929687 s-6.28,-1.7000000000000002 -8.72,4.57 a64.48,64.48 0 0 1 -3.41,7.87 l-2.44,14.57 l-4.47,23 l-3.29,101.75 l1.49,18.08 L791.0599975585938,389.0799987792969 l1.49,-95.05 V282.16999877929686 a86.09,86.09 0 0 1 6.82,-29.7 l1.15,-2.67 l7.12,-9.14 z" fill="#4c4c78" id="svg_75"/><path d="M830.4999975585938,207.58999877929688 s-21.69,23 -29.35,25.73 c0,0 3.83,17.44 7.66,20.84 c0,0 22.76,-23.21 26.79,-25.09 l3.38,-8.27 z" opacity="0.1" id="svg_76"/><path d="M830.4999975585938,206.27999877929688 s-21.69,23 -29.35,25.73 c0,0 3.83,17.44 7.66,20.84 c0,0 22.76,-23.21 26.79,-25.09 l3.38,-8.26 z" fill="#cbcdda" id="svg_77"/><path d="M798.0599975585938,233.64999877929688 l-0.22000000000000003,0.6000000000000001 l-6.95,18.63 L778.4599975585937,288.0299987792969 s-0.11000000000000001,0.36000000000000004 -0.33000000000000007,1 c-2.06,6.4 -13.13,41.13 -15.31,51.22 l-0.15000000000000002,-1.6900000000000002 s11.48,-47.85 11.06,-51.67 c-0.4,-3.44 18.48,-43.59 22.36,-51.8 c0.6200000000000001,-0.42000000000000004 1.1,-0.78 1.4300000000000002,-1.05 z" opacity="0.1" id="svg_78"/><path d="M796.7899975585938,233.6399987792969 l-7.18,19.24 l-12.43,35.15 s-0.11000000000000001,0.36000000000000004 -0.33000000000000007,1 c-2.18,6.82 -14.61,45.75 -15.61,52.87 c-1.13,7.82 -16.76,50.09 -16.76,50.09 l-8.93,73.19 c-8,-6.21 3.36,-66 3.36,-66 s12.76,-88.67 15.78,-118.17 s19.31,-38.12 19.31,-38.12 c7.52,-0.38000000000000006 14.3,-3.7 18.47,-6.25 A39,39 0 0 0 796.7899975585938,233.6399987792969 z" fill="#4c4c78" id="svg_79"/><path d="M886.8399975585937,704.5299987792969 c-1.9100000000000001,14.25 -4.46,54 -4.46,54 c-8.93,13.39 -28.71,6.16 -28.71,6.16 s-2.12,-4 -5.3100000000000005,-19.14 s-5.1,-68.47 -5.1,-68.47 L835.8099975585938,632.2799987792969 c-6.8,-17.23 -8.29,-37.64 -8.29,-37.64 c-3,-7.87 -10.21,-59.54 -10.21,-59.54 s3,46.35 1.07,70.81 S828.1499975585938,663.2799987792969 828.1499975585938,663.2799987792969 s6.6,30.84 3.19,40.41 s8.51,49.11 8.51,49.11 c-1,11.49 -34.86,6.8100000000000005 -34.86,6.8100000000000005 S789.0599975585938,716.8599987792969 786.2699975585938,691.1299987792969 a340,340 0 0 0 -8.19,-46 l-2.7600000000000002,-35.73 L770.4199975585938,588.2799987792969 l-5.84,-27.85 c-6.6,-20.41 -8.61,-54.54 -8.61,-54.54 l-5.11,-33.49 c-3.34,-16.56 1,-36 3.88,-46.17 c1.25,-4.41 2.25,-7.1 2.25,-7.1 c2.93,2.08 19.71,4.52 28.39,6.5 a49.76,49.76 0 0 0 14.5,1.1600000000000001 a323.1,323.1 0 0 0 64.79,-11.88 c1.4300000000000002,-0.43000000000000005 2.19,-0.6800000000000002 2.19,-0.6800000000000002 l0.45,3.83 l1.06,9.12 l1.8900000000000001,16.19 s5.74,86.33 2.34,98 s2.34,51 2.34,51 c-3.19,9.33 6.8,47.25 6.8,47.25 S888.7599975585938,690.2799987792969 886.8399975585937,704.5299987792969 z" opacity="0.1" id="svg_80"/><path d="M886.8399975585937,703.2799987792969 c-1.9100000000000001,14.25 -4.46,54 -4.46,54 c-8.93,13.4 -28.71,6.16 -28.71,6.16 s-2.12,-4 -5.3100000000000005,-19.13 s-5.1,-68.48 -5.1,-68.48 l-7.45,-44.86 C829.0599975585938,613.7399987792969 827.5199975585938,593.2799987792969 827.5199975585938,593.2799987792969 c-3,-7.87 -10.21,-59.54 -10.21,-59.54 s3,46.35 1.07,70.81 s9.77,57.41 9.77,57.41 s6.6,30.84 3.19,40.41 s8.51,49.12 8.51,49.12 c-1,11.48 -34.86,6.8 -34.86,6.8 S789.0599975585938,715.5899987792968 786.2699975585938,689.8499987792969 a340,340 0 0 0 -8.19,-46 l-2.7600000000000002,-35.72 l-4.9,-21.05 l-5.84,-27.85 c-6.6,-20.42 -8.61,-54.55 -8.61,-54.55 l-5.11,-33.49 c-3.34,-16.56 1,-36 3.88,-46.17 c1.25,-4.4 2.25,-7.09 2.25,-7.09 c2.93,2.08 19.71,4.51 28.39,6.49 a49.42,49.42 0 0 0 14.5,1.1600000000000001 a323.1,323.1 0 0 0 64.79,-11.88 l2.19,-0.6700000000000002 l0.45,3.8200000000000003 l1.06,9.13 l1.8900000000000001,16.19 s5.74,86.32 2.34,98 s2.34,51 2.34,51 c-3.19,9.32 6.8,47.24 6.8,47.24 S888.7599975585938,689.0099987792969 886.8399975585937,703.2799987792969 z" fill="#474463" id="svg_81"/><path d="M827.4999975585938,180.39999877929688 A41,41 0 0 1 822.0599975585938,200.87999877929687 c-6.4,1.13 -13.21,-0.12000000000000001 -18,-4.35 c-3.2800000000000002,-2.89 -5.4,-6.84 -8.22,-10.19 a61.71,61.71 0 0 0 -5.87,-5.79 a18.63,18.63 0 0 0 -4.63,-3.37 a6.29,6.29 0 0 0 -5.55,-0.06000000000000001 c-2.26,1.26 -3,4.07 -4.3100000000000005,6.3100000000000005 a8.43,8.43 0 0 1 -4.71,4.11 a5,5 0 0 1 -5.63,-1.9100000000000001 c-1.3900000000000001,-2.39 -0.37000000000000005,-6.12 -2.7,-7.58 a14.870000000000001,14.870000000000001 0 0 0 -1.9,-0.78 c-3,-1.36 -3.35,-5.39 -3.6100000000000003,-8.69 c-0.13,-1.62 -0.48000000000000004,-3.45 -1.84,-4.32 s-3.15,-0.43000000000000005 -4.77,-0.4 a6.19,6.19 0 0 1 -1.4300000000000002,-0.11000000000000001 a41.09,41.09 0 0 1 78.65,16.65 z" opacity="0.1" id="svg_82"/><path d="M746.3699975585937,126.95999877929688 a13.72,13.72 0 0 0 -5.53,9.94 a5.12,5.12 0 0 0 0.15000000000000002,1.9500000000000002 a13.18,13.18 0 0 0 1,1.94 c2.1,4.17 -1.11,9.11 -0.7000000000000001,13.76 a9.15,9.15 0 0 0 9,8 c1.62,0 3.4,-0.48000000000000004 4.77,0.4 s1.71,2.7 1.84,4.32 c0.26,3.3 0.5900000000000001,7.33 3.6,8.69 a16.81,16.81 0 0 1 1.9,0.78 c2.34,1.46 1.32,5.2 2.71,7.58 a5,5 0 0 0 5.63,1.9100000000000001 a8.4,8.4 0 0 0 4.7,-4.1 c1.29,-2.25 2.06,-5 4.32,-6.3100000000000005 a6.26,6.26 0 0 1 5.55,0.05000000000000001 a18.67,18.67 0 0 1 4.63,3.38 a60.54,60.54 0 0 1 5.87,5.79 c2.8200000000000003,3.34 4.94,7.29 8.22,10.18 c6.18,5.43 15.64,6 23.26,2.87 a7.06,7.06 0 0 0 2.89,-1.84 a7.34,7.34 0 0 0 1.31,-3.27 a39.65,39.65 0 0 0 0.6600000000000001,-11.45 c-0.27,-3 -0.8800000000000001,-6 -0.6700000000000002,-9 c0.21000000000000002,-3.22 1.36,-6.33 1.52,-9.55 c0.28,-5.7 -2.55,-11.11 -6,-15.620000000000001 c-2.08,-2.6900000000000004 -4.42,-5.18 -6.22,-8.06 c-1.57,-2.5 -2.71,-5.25 -4.39,-7.67 c-3.94,-5.65 -10.58,-9 -17.36,-10.17 s-13.75,-0.45 -20.54,0.6800000000000002 c-5.92,1 -11.88,2.42 -17.88,2.77 C755.3599975585937,125.27999877929688 751.1299975585938,123.50999877929686 746.3699975585937,126.95999877929688 z" fill="#472727" id="svg_83"/><path d="M796.7899975585938,233.6399987792969 l-7.18,19.24 l-12.43,35.15 s-0.11000000000000001,0.36000000000000004 -0.33000000000000007,1 l0,0.05000000000000001 l15.64,-52.46 A39,39 0 0 0 796.7899975585938,233.6399987792969 z" opacity="0.1" id="svg_84"/><path d="M874.4099975585938,453.8299987792969 s0.7400000000000001,23.28 -5.53,29.13 l-16.69,-31.47 l14,-6.8100000000000005 z" fill="#ffb9b9" id="svg_85"/><path d="M913.3699975585937,462.3299987792969 c-7.66,8.93 -41,10.53 -41,10.53 l-33,-52 s-7.8100000000000005,-5.42 -22.48,-29.83 s-14.19,-43.21 -13.37,-57.25 s10,-54.39 10,-54.39 c1.4300000000000002,-9.08 22,-66 22,-66 c2.16,4.3100000000000005 6.18,7.91 10.88,10.88 c12.7,8 30.43,11.28 30.43,11.28 c28.56,4.15 23.29,33.65 23.29,33.65 s0.32000000000000006,114.67 -1.44,128.39 S913.3699975585937,462.3299987792969 913.3699975585937,462.3299987792969 z" opacity="0.1" id="svg_86"/><polygon points="874.84 458.29 873.88 466.8 862.29 462.55 853.79 449.68 860.17 444.68 874.84 458.29" fill="#cbcdda" id="svg_87"/><path d="M874.4299975585938,425.3299987792969 l-6.06,0.6200000000000001 l-58.43,5.84 a94.65,94.65 0 0 1 -28.1,-1.3800000000000001 l-27.1,-5.42 c1.25,-4.4 2.25,-7.09 2.25,-7.09 c2.93,2.08 19.71,4.51 28.39,6.49 a49.42,49.42 0 0 0 14.5,1.1600000000000001 a323.1,323.1 0 0 0 64.79,-11.88 l2.64,3.15 z" opacity="0.1" id="svg_88"/><g opacity="0.1" id="svg_89"><path d="M757.5999975585937,418.2199987792969 a5.3,5.3 0 0 1 -0.56,-0.32000000000000006 s0,0.06000000000000001 -0.06000000000000001,0.15000000000000002 z" id="svg_90"/><path d="M881.7899975585938,638.3999987792969 s-10,-37.92 -6.8,-47.24 c0,0 -5.74,-39.3 -2.33,-51 s-2.35,-98 -2.35,-98 l-1.8900000000000001,-16.19 l-1.06,-9.13 l-0.44000000000000006,-3.8200000000000003 l-2.2,0.6700000000000002 l-1.36,0.4 l0.17,1.48 l1.06,9.12 l1.8900000000000001,16.19 s5.74,86.33 2.35,98 s2.33,51 2.33,51 c-3.19,9.33 6.8,47.24 6.8,47.24 s7,50.62 5.11,64.86 s-4.47,54 -4.47,54 c-6.52,9.79 -18.83,8.57 -25,7.2 l0.11000000000000001,0.24000000000000002 s19.78,7.24 28.71,-6.16 c0,0 2.55,-39.77 4.47,-54 S881.7899975585938,638.3999987792969 881.7899975585938,638.3999987792969 z" id="svg_91"/><path d="M831.3999975585938,702.4099987792969 c3.4,-9.57 -3.19,-40.41 -3.19,-40.41 s-11.69,-33 -9.78,-57.41 c0.8,-10.19 0.7500000000000001,-24.17 0.41000000000000003,-37 c-2.71,-16.55 -5.3100000000000005,-35 -5.3100000000000005,-35 s3,46.35 1.08,70.8 s9.77,57.42 9.77,57.42 s6.6,30.83 3.19,40.4 S836.0599975585938,750.2799987792969 836.0599975585938,750.2799987792969 c-0.8500000000000001,9.2 -22.7,8 -31.37,7.2 l0.33000000000000007,0.8800000000000001 s33.81,4.68 34.87,-6.8 C839.9099975585938,751.5299987792969 827.9999975585938,711.9799987792969 831.3999975585938,702.4099987792969 z" id="svg_92"/></g><path d="M914.6399975585938,462.3299987792969 c-7.65,8.93 -41,10.53 -41,10.53 l-33,-52 s-7.8100000000000005,-5.42 -22.49,-29.83 s-14.18,-43.21 -13.37,-57.25 s10,-54.39 10,-54.39 c1.4300000000000002,-9.08 22,-66 22,-66 c2.15,4.3100000000000005 6.17,7.91 10.88,10.88 c12.7,8 30.43,11.28 30.43,11.28 c28.55,4.15 23.28,33.65 23.28,33.65 s0.32000000000000006,114.67 -1.44,128.39 S914.6399975585938,462.3299987792969 914.6399975585938,462.3299987792969 z" fill="#4c4c78" id="svg_93"/><path d="M842.8899975585938,241.60999877929686 L835.7099975585937,244.27999877929688 l4.78,3.35 l-35.7,86.12 c0.8300000000000001,-14 10,-54.39 10,-54.39 c1.4300000000000002,-9.08 22,-66 22,-66 c2.15,4.3100000000000005 6.17,7.91 10.88,10.88 z" opacity="0.1" id="svg_94"/><polygon points="851.5 395.03 888.02 385.62 892.81 400.45 855.49 409.55 851.5 395.03" opacity="0.1" id="svg_95"/><path d="M872.3899975585938,247.66999877929686 S855.7999975585938,263.2799987792969 862.0599975585938,298.0699987792969 s16.27,72.56 16.27,72.56 l-27,74.8 s18.82,19.62 28.07,22 l26.95,-59.81 s12.6,-20.73 9.25,-53.26 s-15.47,-85.17 -15.47,-85.17 S900.1399975585938,237.14999877929688 872.3899975585938,247.66999877929686 z" opacity="0.1" id="svg_96"/><path d="M873.6599975585938,247.66999877929686 S857.0599975585938,263.2799987792969 863.2999975585938,298.0699987792969 s16.26,72.56 16.26,72.56 l-27,74.8 s18.82,19.62 28.07,22 l27,-59.81 s12.6,-20.73 9.25,-53.26 s-15.47,-85.17 -15.47,-85.17 S901.4099975585938,237.14999877929688 873.6599975585938,247.66999877929686 z" fill="#4c4c78" id="svg_97"/><path d="M853.4599975585937,447.0199987792969 s21.05,29.14 19.46,36.9 s-7.76,3.6100000000000003 -7.76,3.6100000000000003 l-8.29,-11.37 l-7.45,-21.27 S850.1499975585938,445.7099987792969 853.4599975585937,447.0199987792969 z" opacity="0.1" id="svg_98"/><path d="M850.9099975585938,447.0199987792969 s21,29.14 19.46,36.9 s-7.76,3.6100000000000003 -7.76,3.6100000000000003 l-8.3,-11.37 l-7.44,-21.27 S847.5999975585937,445.7099987792969 850.9099975585938,447.0199987792969 z" opacity="0.1" id="svg_99"/><path d="M852.1899975585937,447.0199987792969 s21,29.14 19.45,36.9 s-7.76,3.6100000000000003 -7.76,3.6100000000000003 l-8.29,-11.37 l-7.44,-21.27 S848.8699975585937,445.7099987792969 852.1899975585937,447.0199987792969 z" fill="#474463" id="svg_100"/></g></svg>