<svg xmlns="http://www.w3.org/2000/svg" xmlns:xlink="http://www.w3.org/1999/xlink" data-name="Layer 1" width="1140.2099609375" height="776" style=""><rect id="backgroundrect" width="100%" height="100%" x="0" y="0" fill="none" stroke="none"/><defs><linearGradient id="1dd6dc0b-ad1e-451b-b90e-ab2e972949f2" x1="0.4999954402446747" y1="1.000046968460083" x2="0.4999954402446747" y2="-0.00008449336019111797"><stop offset="0" stop-color="gray" stop-opacity="0.25"/><stop offset="0.54" stop-color="gray" stop-opacity="0.12"/><stop offset="1" stop-color="gray" stop-opacity="0.1"/></linearGradient></defs><title>podcast</title><g class="currentLayer" style=""><title>Layer 1</title><path d="M469.1780353093148,764.57 c77.07,-42.65 165.11,-56.28 251.15,-38 c121.92,25.92 275.15,15.76 304.83,-184.21 c50.69,-341.52 -161.73,-431.66 -161.73,-431.66 s-141.26,-11.83 -224.79,-56.87 c-118.65,-64 -254.27,-72.15 -373.52,-18 c-76.26,34.6 -139.06,82.78 -149.79,148.93 c-30,185 19.27,286.93 -72.9,347.32 S29.02803530931473,758.27 99.68803530931473,752.53 s230.33,-68.71 292.55,4.23 C414.3380353093147,782.63 442.29803530931474,779.45 469.1780353093148,764.57 z" fill="#22a6b3" opacity="0.1" id="svg_1" class="" fill-opacity="1"/><rect x="516.27001953125" y="150.2100067138672" width="318" height="22" fill="#22a6b3" opacity="0.1" id="svg_2" class="" fill-opacity="1"/><rect x="516.27001953125" y="245.2100067138672" width="318" height="22" fill="#22a6b3" opacity="0.1" id="svg_3" class="" fill-opacity="1"/><rect x="516.27001953125" y="344.2099914550781" width="318" height="22" fill="#22a6b3" opacity="0.1" id="svg_4" class="" fill-opacity="1"/><rect x="544.27001953125" y="93.20999908447266" width="20" height="57" fill="#22a6b3" opacity="0.1" id="svg_5" class="" fill-opacity="1"/><rect x="544.27001953125" y="102.20999908447266" width="20" height="4" fill="#22a6b3" opacity="0.1" id="svg_6" class="" fill-opacity="1"/><rect x="544.27001953125" y="133.2100067138672" width="20" height="4" fill="#22a6b3" opacity="0.1" id="svg_7" class="" fill-opacity="1"/><rect x="574.27001953125" y="93.20999908447266" width="20" height="57" fill="#22a6b3" opacity="0.1" id="svg_8" class="" fill-opacity="1"/><rect x="574.27001953125" y="102.20999908447266" width="20" height="4" fill="#22a6b3" opacity="0.1" id="svg_9" class="" fill-opacity="1"/><rect x="574.27001953125" y="133.2100067138672" width="20" height="4" fill="#22a6b3" opacity="0.1" id="svg_10" class="" fill-opacity="1"/><rect x="604.27001953125" y="93.20999908447266" width="20" height="57" fill="#22a6b3" opacity="0.1" id="svg_11" class="" fill-opacity="1"/><rect x="604.27001953125" y="102.20999908447266" width="20" height="4" fill="#22a6b3" opacity="0.1" id="svg_12" class="" fill-opacity="1"/><rect x="604.27001953125" y="133.2100067138672" width="20" height="4" fill="#22a6b3" opacity="0.1" id="svg_13" class="" fill-opacity="1"/><rect x="634.27001953125" y="93.20999908447266" width="20" height="57" fill="#22a6b3" opacity="0.1" id="svg_14" class="" fill-opacity="1"/><rect x="634.27001953125" y="102.20999908447266" width="20" height="4" fill="#22a6b3" opacity="0.1" id="svg_15" class="" fill-opacity="1"/><rect x="634.27001953125" y="133.2100067138672" width="20" height="4" fill="#22a6b3" opacity="0.1" id="svg_16" class="" fill-opacity="1"/><rect x="664.27001953125" y="93.20999908447266" width="20" height="57" fill="#22a6b3" opacity="0.1" id="svg_17" class="" fill-opacity="1"/><rect x="664.27001953125" y="102.20999908447266" width="20" height="4" fill="#22a6b3" opacity="0.1" id="svg_18" class="" fill-opacity="1"/><rect x="664.27001953125" y="133.2100067138672" width="20" height="4" fill="#22a6b3" opacity="0.1" id="svg_19" class="" fill-opacity="1"/><rect x="694.8480542302132" y="93.20999908447266" width="20" height="57" fill="#22a6b3" opacity="0.1" id="svg_20" class="" fill-opacity="1"/><rect x="694.27001953125" y="102.20999908447266" width="20" height="4" fill="#22a6b3" opacity="0.1" id="svg_21" class="" fill-opacity="1"/><rect x="694.27001953125" y="133.2100067138672" width="20" height="4" fill="#22a6b3" opacity="0.1" id="svg_22" class="" fill-opacity="1"/><rect x="724.27001953125" y="93.20999908447266" width="20" height="57" fill="#22a6b3" opacity="0.1" id="svg_23" class="" fill-opacity="1"/><rect x="724.27001953125" y="102.20999908447266" width="20" height="4" fill="#22a6b3" opacity="0.1" id="svg_24" class="" fill-opacity="1"/><rect x="724.27001953125" y="133.2100067138672" width="20" height="4" fill="#22a6b3" opacity="0.1" id="svg_25" class="" fill-opacity="1"/><rect x="638.239990234375" y="670.6500244140625" width="20" height="57" transform="rotate(-26.6299991607666 648.2399902343758,699.1500244140627) " fill="#50e7f4" opacity="0.1" id="svg_26" class="" fill-opacity="1"/><rect x="636.5800170898438" y="676.3399658203125" width="20" height="4" transform="translate(0.5780346989631653,0) " fill="#6c63ff" opacity="0.1" id="svg_27" class=""/><rect x="648.7685699462891" y="726.5147705078125" width="20" height="4" transform="rotate(-26.6299991607666 -113.44145202636732,338.73480224609375) " fill="#6c63ff" opacity="0.1" id="svg_28" class="selected"/><rect x="544.27001953125" y="189.2100067138672" width="20" height="57" fill="#22a6b3" opacity="0.1" id="svg_29" class="" fill-opacity="1"/><rect x="544.27001953125" y="198.2100067138672" width="20" height="4" fill="#22a6b3" opacity="0.1" id="svg_30" class="" fill-opacity="1"/><rect x="544.27001953125" y="229.2100067138672" width="20" height="4" fill="#22a6b3" opacity="0.1" id="svg_31" class="" fill-opacity="1"/><rect x="574.27001953125" y="189.2100067138672" width="20" height="57" fill="#22a6b3" opacity="0.1" id="svg_32" class="" fill-opacity="1"/><rect x="574.27001953125" y="198.2100067138672" width="20" height="4" fill="#22a6b3" opacity="0.1" id="svg_33" class="" fill-opacity="1"/><rect x="574.27001953125" y="229.2100067138672" width="20" height="4" fill="#22a6b3" opacity="0.1" id="svg_34" class="" fill-opacity="1"/><rect x="604.27001953125" y="189.2100067138672" width="20" height="57" fill="#22a6b3" opacity="0.1" id="svg_35" class="" fill-opacity="1"/><rect x="604.27001953125" y="198.2100067138672" width="20" height="4" fill="#22a6b3" opacity="0.1" id="svg_36" class="" fill-opacity="1"/><rect x="604.27001953125" y="229.2100067138672" width="20" height="4" fill="#22a6b3" opacity="0.1" id="svg_37" class="" fill-opacity="1"/><rect x="729.27001953125" y="189.2100067138672" width="20" height="57" fill="#22a6b3" opacity="0.1" id="svg_38" class="" fill-opacity="1"/><rect x="729.27001953125" y="198.2100067138672" width="20" height="4" fill="#22a6b3" opacity="0.1" id="svg_39" class="" fill-opacity="1"/><rect x="729.27001953125" y="229.2100067138672" width="20" height="4" fill="#22a6b3" opacity="0.1" id="svg_40" class="" fill-opacity="1"/><rect x="759.27001953125" y="189.2100067138672" width="20" height="57" fill="#22a6b3" opacity="0.1" id="svg_41" class="" fill-opacity="1"/><rect x="759.27001953125" y="198.2100067138672" width="20" height="4" fill="#22a6b3" opacity="0.1" id="svg_42" class="" fill-opacity="1"/><rect x="759.27001953125" y="229.2100067138672" width="20" height="4" fill="#22a6b3" opacity="0.1" id="svg_43" class="" fill-opacity="1"/><rect x="789.27001953125" y="189.2100067138672" width="20" height="57" fill="#22a6b3" opacity="0.1" id="svg_44" class="" fill-opacity="1"/><rect x="789.27001953125" y="198.2100067138672" width="20" height="4" fill="#22a6b3" opacity="0.1" id="svg_45" class="" fill-opacity="1"/><rect x="789.27001953125" y="229.2100067138672" width="20" height="4" fill="#22a6b3" opacity="0.1" id="svg_46" class="" fill-opacity="1"/><rect x="544.27001953125" y="287.2099914550781" width="20" height="57" fill="#22a6b3" opacity="0.1" id="svg_47" class="" fill-opacity="1"/><rect x="544.27001953125" y="296.2099914550781" width="20" height="4" fill="#22a6b3" opacity="0.1" id="svg_48" class="" fill-opacity="1"/><rect x="544.27001953125" y="327.2099914550781" width="20" height="4" fill="#6c63ff" opacity="0.1" id="svg_49"/><rect x="574.27001953125" y="287.2099914550781" width="20" height="57" fill="#22a6b3" opacity="0.1" id="svg_50" class="" fill-opacity="1"/><rect x="574.27001953125" y="296.2099914550781" width="20" height="4" fill="#22a6b3" opacity="0.1" id="svg_51" class="" fill-opacity="1"/><rect x="574.27001953125" y="327.2099914550781" width="20" height="4" fill="#6c63ff" opacity="0.1" id="svg_52"/><rect x="604.27001953125" y="287.2099914550781" width="20" height="57" fill="#22a6b3" opacity="0.1" id="svg_53" class="" fill-opacity="1"/><rect x="604.27001953125" y="296.2099914550781" width="20" height="4" fill="#22a6b3" opacity="0.1" id="svg_54" class="" fill-opacity="1"/><rect x="604.27001953125" y="327.2099914550781" width="20" height="4" fill="#6c63ff" opacity="0.1" id="svg_55"/><rect x="634.27001953125" y="287.2099914550781" width="20" height="57" fill="#22a6b3" opacity="0.1" id="svg_56" class="" fill-opacity="1"/><rect x="634.27001953125" y="296.2099914550781" width="20" height="4" fill="#22a6b3" opacity="0.1" id="svg_57" class="" fill-opacity="1"/><rect x="634.27001953125" y="327.2099914550781" width="20" height="4" fill="#6c63ff" opacity="0.1" id="svg_58"/><rect x="664.27001953125" y="287.2099914550781" width="20" height="57" fill="#22a6b3" opacity="0.1" id="svg_59" class="" fill-opacity="1"/><rect x="664.27001953125" y="296.2099914550781" width="20" height="4" fill="#22a6b3" opacity="0.1" id="svg_60" class="" fill-opacity="1"/><rect x="664.27001953125" y="327.2099914550781" width="20" height="4" fill="#6c63ff" opacity="0.1" id="svg_61"/><rect x="694.27001953125" y="287.2099914550781" width="20" height="57" fill="#22a6b3" opacity="0.1" id="svg_62" class="" fill-opacity="1"/><rect x="694.27001953125" y="296.2099914550781" width="20" height="4" fill="#22a6b3" opacity="0.1" id="svg_63" class="" fill-opacity="1"/><rect x="694.27001953125" y="327.2099914550781" width="20" height="4" fill="#6c63ff" opacity="0.1" id="svg_64"/><path d="M774.2700006103515,98.28999999999999 v51.92 h-20 V94.47999999999999 Q764.3100006103516,96.25 774.2700006103515,98.28999999999999 z" fill="#22a6b3" opacity="0.1" id="svg_65" class="" fill-opacity="1"/><rect x="754.27001953125" y="102.20999908447266" width="20" height="4" fill="#22a6b3" opacity="0.1" id="svg_66" class="" fill-opacity="1"/><rect x="754.27001953125" y="133.2100067138672" width="20" height="4" fill="#22a6b3" opacity="0.1" id="svg_67" class="" fill-opacity="1"/><path d="M804.2700006103515,105.22999999999999 v45 h-20 V100.43 c2.6,0.5700000000000001 5.19,1.17 7.78,1.78 Q798.1900006103516,103.65 804.2700006103515,105.22999999999999 z" fill="#22a6b3" opacity="0.1" id="svg_68" class="" fill-opacity="1"/><path d="M804.2700006103515,105.22999999999999 v1 h-20 v-4 h7.78 Q798.1900006103516,103.65 804.2700006103515,105.22999999999999 z" fill="#22a6b3" opacity="0.1" id="svg_69" class="" fill-opacity="1"/><rect x="784.27001953125" y="133.2100067138672" width="20" height="4" fill="#22a6b3" opacity="0.1" id="svg_70" class="" fill-opacity="1"/><g opacity="0.1" id="svg_71" class="" fill-opacity="1" fill="#22a6b3"><path d="M664.6600006103515,225.49 s-6.06,-2.06 -9,3.29 a9.75,9.75 0 0 0 0.13,9.38 c1.92,3.46 5.87,8 13.35,7.5600000000000005 c6.35,-0.3400000000000001 8.46,-5.18 9,-9.69 a10,10 0 0 0 -13.22,-10.66 z" fill="#22a6b3" id="svg_72"/><path d="M657.1100006103516,238.64999999999998 a9.75,9.75 0 0 1 -0.13,-9.38 c2.92,-5.34 9,-3.29 9,-3.29 l0.31000000000000005,-0.11000000000000001 a9.870000000000001,9.870000000000001 0 0 1 7.13,0.16000000000000003 a9.870000000000001,9.870000000000001 0 0 0 -8.41,-0.8 l-0.31000000000000005,0.11000000000000001 s-6.06,-2.06 -9,3.29 a9.75,9.75 0 0 0 0.13,9.38 a14.57,14.57 0 0 0 6.86,6.49 A15,15 0 0 1 657.1100006103516,238.64999999999998 z" fill="#22a6b3" opacity="0.1" id="svg_73"/><path d="M661.5300006103515,228.06 s2.25,1.77 7.71,0 " fill="#22a6b3" opacity="0.2" id="svg_74"/><path d="M661.0400006103515,215.20999999999998 s3.85,10.44 3.5300000000000002,13.17 l3.05,-0.32000000000000006 s-5.14,-9.15 -3.85,-12.85 z" fill="#22a6b3" id="svg_75"/><path d="M661.0400006103515,215.20999999999998 s3.85,10.44 3.5300000000000002,13.17 l3.05,-0.32000000000000006 s-5.14,-9.15 -3.85,-12.85 z" fill="#22a6b3" opacity="0.2" id="svg_76"/><path d="M676.7800006103515,216.08999999999997 s-6.07,-3.1 -8.78,-0.54 s-3.13,9.11 -3.13,9.11 S674.7600006103515,226 676.7800006103515,216.08999999999997 z" fill="#22a6b3" id="svg_77"/><path d="M676.7800006103515,216.08999999999997 s-6.07,-3.1 -8.78,-0.54 s-3.13,9.11 -3.13,9.11 S674.7600006103515,226 676.7800006103515,216.08999999999997 z" fill="#22a6b3" opacity="0.1" id="svg_78"/><path d="M664.8600006103516,224.66000000000003 s1.59,-7.6 11.91,-8.58 " fill="#22a6b3" id="svg_79"/></g><g opacity="0.1" id="svg_80" class="" fill-opacity="1" fill="#22a6b3"><path d="M792.6600006103515,324.49 s-6.06,-2.06 -9,3.29 a9.75,9.75 0 0 0 0.13,9.38 c1.92,3.46 5.87,8 13.35,7.5600000000000005 c6.35,-0.3400000000000001 8.46,-5.18 9,-9.69 a10,10 0 0 0 -13.22,-10.66 z" fill="#22a6b3" id="svg_81"/><path d="M785.1100006103516,337.65 a9.75,9.75 0 0 1 -0.13,-9.38 c2.92,-5.34 9,-3.29 9,-3.29 l0.31000000000000005,-0.11000000000000001 a9.870000000000001,9.870000000000001 0 0 1 7.13,0.16000000000000003 a9.870000000000001,9.870000000000001 0 0 0 -8.41,-0.8 l-0.31000000000000005,0.11000000000000001 s-6.06,-2.06 -9,3.29 a9.75,9.75 0 0 0 0.13,9.38 a14.57,14.57 0 0 0 6.86,6.49 A15,15 0 0 1 785.1100006103516,337.65 z" fill="#22a6b3" opacity="0.1" id="svg_82"/><path d="M789.5300006103515,327.06 s2.25,1.77 7.71,0 " fill="#22a6b3" opacity="0.2" id="svg_83"/><path d="M789.0400006103515,314.21 s3.85,10.44 3.5300000000000002,13.17 l3.05,-0.32000000000000006 s-5.14,-9.15 -3.85,-12.85 z" fill="#22a6b3" id="svg_84"/><path d="M789.0400006103515,314.21 s3.85,10.44 3.5300000000000002,13.17 l3.05,-0.32000000000000006 s-5.14,-9.15 -3.85,-12.85 z" fill="#22a6b3" opacity="0.2" id="svg_85"/><path d="M804.7800006103515,315.09 s-6.07,-3.1 -8.78,-0.54 s-3.13,9.11 -3.13,9.11 S802.7600006103515,325 804.7800006103515,315.09 z" fill="#22a6b3" id="svg_86"/><path d="M804.7800006103515,315.09 s-6.07,-3.1 -8.78,-0.54 s-3.13,9.11 -3.13,9.11 S802.7600006103515,325 804.7800006103515,315.09 z" fill="#22a6b3" opacity="0.1" id="svg_87"/><path d="M792.8600006103516,323.66 s1.59,-7.6 11.91,-8.58 " fill="#22a6b3" id="svg_88"/></g><ellipse cx="995.02001953125" cy="610.8400268554688" rx="54" ry="19.200000762939453" opacity="0.1" id="svg_89"/><path d="M995.0600006103516,611 s30.81,-104.59 -5.78,-181.58 c-15.35,-32.31 -20.45,-68.58 -13.36,-103.64 a277.84,277.84 0 0 1 14.67,-48.65 " fill="none" stroke="#535461" stroke-miterlimit="10" stroke-width="2" id="svg_90"/><path d="M967.8300006103516,228.47000000000003 c0,12.82 23.21,50 23.21,50 s23.21,-37.17 23.21,-50 a23.21,23.21 0 1 0 -46.42,0 z" fill="#22a6b3" id="svg_91" class="" fill-opacity="1"/><path d="M929.4600006103516,299.47 c7,10.76 46.65,29.35 46.65,29.35 s-0.7200000000000001,-43.82 -7.69,-54.58 a23.21,23.21 0 1 0 -39,25.23 z" fill="#22a6b3" id="svg_92" class="" fill-opacity="1"/><path d="M931.1100006103516,420.81 c11.45,5.77 55.09,1.78 55.09,1.78 s-22.74,-37.46 -34.19,-43.23 A23.21,23.21 0 1 0 931.1100006103516,420.81 z" fill="#22a6b3" id="svg_93" class="" fill-opacity="1"/><path d="M953.1100006103516,512.33 c10.31,7.62 54,11.07 54,11.07 s-16.08,-40.77 -26.39,-48.39 A23.21,23.21 0 1 0 953.1100006103516,512.33 z" fill="#22a6b3" id="svg_94" class="" fill-opacity="1"/><path d="M1024.8500006103516,331.3 c-9.19,8.93 -52,18.18 -52,18.18 s10.49,-42.55 19.68,-51.48 a23.21,23.21 0 1 1 32.34,33.3 z" fill="#22a6b3" id="svg_95" class="" fill-opacity="1"/><path d="M1049.1100006103516,438.66 c-11.45,5.77 -55.09,1.78 -55.09,1.78 s22.74,-37.46 34.19,-43.23 a23.21,23.21 0 1 1 20.9,41.45 z" fill="#22a6b3" id="svg_96" class="" fill-opacity="1"/><path d="M1058.4500006103515,546.25 c-10.31,7.62 -54,11.07 -54,11.07 s16.08,-40.77 26.39,-48.39 a23.21,23.21 0 1 1 27.6,37.32 z" fill="#22a6b3" id="svg_97" class="" fill-opacity="1"/><ellipse cx="860.6199951171875" cy="555.6400146484375" rx="54" ry="19.200000762939453" opacity="0.1" id="svg_98"/><path d="M858.4300006103516,558.37 s14.43,-49 -2.71,-85.07 a77.4,77.4 0 0 1 -6.26,-48.56 a130.18,130.18 0 0 1 6.88,-22.79 " fill="none" stroke="#535461" stroke-miterlimit="10" stroke-width="2" id="svg_99"/><path d="M845.6700006103515,379.15 c0,6 10.870000000000001,23.42 10.870000000000001,23.42 s10.870000000000001,-17.42 10.870000000000001,-23.42 a10.870000000000001,10.870000000000001 0 0 0 -21.75,0 z" fill="#22a6b3" id="svg_100" class="" fill-opacity="1"/><path d="M827.7000006103516,412.41 c3.26,5 21.86,13.75 21.86,13.75 s-0.3400000000000001,-20.53 -3.6,-25.57 a10.870000000000001,10.870000000000001 0 1 0 -18.26,11.82 z" fill="#22a6b3" id="svg_101" class="" fill-opacity="1"/><path d="M828.4800006103516,469.26 c5.36,2.7 25.81,0.8400000000000001 25.81,0.8400000000000001 s-10.65,-17.55 -16,-20.26 a10.870000000000001,10.870000000000001 0 1 0 -9.79,19.42 z" fill="#22a6b3" id="svg_102" class="" fill-opacity="1"/><path d="M838.7600006103515,512.14 c4.83,3.5700000000000003 25.3,5.19 25.3,5.19 s-7.54,-19.1 -12.36,-22.67 a10.870000000000001,10.870000000000001 0 1 0 -12.93,17.49 z" fill="#22a6b3" id="svg_103" class="" fill-opacity="1"/><path d="M872.3900006103515,427.33 c-4.3100000000000005,4.18 -24.38,8.52 -24.38,8.52 s4.92,-19.94 9.22,-24.12 a10.870000000000001,10.870000000000001 0 0 1 15.15,15.6 z" fill="#22a6b3" id="svg_104" class="" fill-opacity="1"/><path d="M883.7800006103515,477.63 c-5.36,2.7 -25.81,0.8400000000000001 -25.81,0.8400000000000001 s10.65,-17.55 16,-20.26 a10.870000000000001,10.870000000000001 0 0 1 9.79,19.42 z" fill="#22a6b3" id="svg_105" class="" fill-opacity="1"/><path d="M888.1100006103516,528 c-4.83,3.5700000000000003 -25.3,5.19 -25.3,5.19 s7.54,-19.1 12.36,-22.67 A10.870000000000001,10.870000000000001 0 1 1 888.1100006103516,528 z" fill="#22a6b3" id="svg_106" class="" fill-opacity="1"/><path d="M1138.3300006103516,655.85 L828.6900006103516,491.6 H763.7600006103515 l16.8,-139.84 a23.18,23.18 0 0 0 -20.71,-25.83 L758.1100006103516,326 l-0.17,0 l-236.21,3.59 A25.49,25.49 0 0 0 495.11000061035156,349.22 l-11,80.36 l-1.59,-2.43 l-0.77,-1.17 c5.8100000000000005,-3.7800000000000002 -5.65,-26.25 -15.36,-43 l-0.8800000000000001,-1.52 c6.16,-2.5700000000000003 13,-5 13,-5 L463.36000061035156,367 s-13.94,-20.18 -28.78,-36.55 c10,-62.62 -11.12,-135 -11.37,-136 l-0.56,0.15000000000000002 A29.9,29.9 0 0 0 427.11000061035156,178.8 h0 a30,30 0 0 0 -10.12,-22.48 c-0.5900000000000001,-5.36 -1.44,-10.88 -2.66,-16.69 h0 c-0.22000000000000003,-1 -0.45,-2.11 -0.7000000000000001,-3.17 c-1.1400000000000001,-5 -2.29,-10 -3.8,-14.9 a75,75 0 0 0 -3.89,-10.21 c-7.890000000000001,-16.67 -24.12,-28.59 -41.9,-32.79 c-9.15,-2.16 -18.53,1.19 -27.07,-0.41000000000000003 c-4.3,-0.79 -8.15,-4.92 -12.34,-6.59 c-5.3100000000000005,-2.12 -11.06,-3.11 -16.68,-4 c-7,-1.17 -14.27,-2.33 -21.24,-0.81 c-11.5,2.5 -20.27,11.82 -26.72,21.66 s-11.46,20.74 -19.43,29.4 c-5.33,5.8 -11.89,10.46 -16.64,16.74 c-7,9.24 -9.43,21 -11.68,32.42 c-2.7800000000000002,14.05 -5.5600000000000005,28.3 -5.5,42.57 c0,3.31 0.05000000000000001,6.63 0.3400000000000001,9.95 c0.7300000000000001,8.52 2.67,16.92 3.13,25.45 c0,0.92 0.07,1.84 0.09000000000000002,2.7600000000000002 c-0.1,15.61 -4.71,31 -9.29,46 c-1.46,4.77 -2.94,9.58 -4.67,14.28 c-9.2,0.78 -18,2.62 -24.71,6.24 C147.11000061035156,327.34 128.24000061035156,356.6 128.24000061035156,356.6 l-35.87,33 s14.16,6.61 20.77,17.94 a8,8 0 0 0 0.81,1.13 l-0.52,1.2 l-21.06,48.64 s13.22,9.44 33,7.55 a24.56,24.56 0 0 1 9.6,0.7000000000000001 c0,0.6000000000000001 -0.06000000000000001,1.21 -0.08000000000000002,1.85 c-1.21,27.83 -1.85,88.81 12.55,130 l-32.54,38 l-65,19.25 l-2.83,50 H1140.2200006103515 zM200.84000061035155,469.4 a39.82,39.82 0 0 1 8.11,2.58 v34.76 c-1.7200000000000002,-12.28 -4.11,-24.86 -7.44,-35.32 C201.30000061035156,470.74 201.11000061035156,470.07000000000005 200.84000061035155,469.4 zm187.69,66.89 q0,-0.18000000000000002 0,-0.36000000000000004 a17.74,17.74 0 0 1 0.49000000000000005,-3.6 a10.18,10.18 0 0 1 2.6100000000000003,-4.86 c2.41,-2.41 4.9,-5 7.39,-7.8100000000000005 a36.39,36.39 0 0 0 6.54,10.81 c3.2,3.5700000000000003 10.35,6.78 20.39,9.68 A367.91,367.91 0 0 0 388.5300006103516,536.29 zm81.61,-4.8 l-32.68,9.67 c-15.45,-3.46 -26.44,-7.42 -30.51,-12 A35,35 0 0 1 400.43000061035156,518 c11.66,-13.52 23,-31.71 25.6,-56.55 c0.07,-0.6500000000000001 0.12000000000000001,-1.32 0.18000000000000002,-2 a65.1,65.1 0 0 0 10,-7 l0.5900000000000001,1.3800000000000001 a175.9,175.9 0 0 0 36.65,53.58 zM421.70000061035154,196.06 c2.5700000000000003,9.27 20,74.9 11.26,132.61 c-5.44,-5.86 -10.93,-11.1 -15.85,-14.55 a30.78,30.78 0 0 0 -3.6500000000000004,-2.17 c-1.09,-10.58 -1.59,-21.55 -1.6700000000000002,-32.42 c0.1,-13.46 0.9,-26.81 2,-39.51 c1.19,-13.46 2.59,-26.3 3.46,-38.93 A30.21,30.21 0 0 0 421.70000061035154,196.06 z" fill="url(#1dd6dc0b-ad1e-451b-b90e-ab2e972949f2)" id="svg_107" class=""/><path d="M1309.1099926757813,642.759990234375 h8.53 a0,0 0 0 1 0,0 v59 a0,0 0 0 1 0,0 h-8.53 a24.56,24.56 0 0 1 -24.56,-24.56 v-9.82 A24.56,24.56 0 0 1 1309.1099926757813,642.759990234375 z" transform="rotate(-180 857.4299926757812,427.489990234375) " fill="#dfe6f5" id="svg_108"/><rect x="1244.219970703125" y="642.760009765625" width="14.479999542236328" height="58.95000076293945" rx="6.03000020980835" ry="6.03000020980835" transform="rotate(-180 824.3400268554688,427.489990234375) " fill="#535461" id="svg_109"/><g opacity="0.1" id="svg_110"><path d="M1309.1099926757813,642.759990234375 h8.53 a0,0 0 0 1 0,0 v59 a0,0 0 0 1 0,0 h-8.53 a24.56,24.56 0 0 1 -24.56,-24.56 v-9.82 A24.56,24.56 0 0 1 1309.1099926757813,642.759990234375 z" transform="rotate(-180 857.4299926757812,427.489990234375) " id="svg_111"/><rect x="1244.219970703125" y="642.760009765625" width="14.479999542236328" height="58.95000076293945" rx="6.03000020980835" ry="6.03000020980835" transform="rotate(-180 824.3400268554688,427.489990234375) " id="svg_112"/></g><rect x="260.7200012207031" y="184.4499969482422" width="149.08999633789062" height="154.64999389648438" fill="#865a61" id="svg_113"/><rect x="260.7200012207031" y="163.14999389648438" width="149.08999633789062" height="154.64999389648438" opacity="0.1" id="svg_114"/><path d="M404.7200006103516,312.71 l-9,65.4 l-4.24,30.74 l-1.56,11.29 l-13.07,25.48 l-24,46.76 l-46.3,5.5600000000000005 L225.11000061035156,383.09 S182.47000061035158,301.6 247.30000061035156,309 c36.35,4.16 45,-28.38 45.65,-57.77 a218.52,218.52 0 0 0 -4,-44.1 l64.82,31.49 q-2.26,10.53 -3.4,19.35 c-3.16,24.06 -0.54,39.06 4.94,48.15 C369.9000006103516,330.33 404.7200006103516,312.71 404.7200006103516,312.71 z" fill="#fdc2cc" id="svg_115"/><path d="M353.79000061035157,238.63 q-2.26,10.53 -3.4,19.35 a75.41,75.41 0 0 1 -20.68,2.88 a74.64,74.64 0 0 1 -36.76,-9.61 a218.52,218.52 0 0 0 -4,-44.1 z" opacity="0.1" id="svg_116"/><circle cx="329.7099914550781" cy="183.99000549316406" r="75.01000213623047" fill="#fdc2cc" id="svg_117"/><path d="M429.73000061035157,610.9 L121.35000061035157,635 l50,-58.34 c53.65,-32.78 53.19,-77.84 46.06,-105.79 a108.76,108.76 0 0 0 -9.95,-25.71 l106.59,0.5 h0.9 l8.76,19.91 l0.4,0.9 l6.52,14.81 l22.22,-39.82 L360.5800006103516,429 l4.32,-7 s63.9,-14.82 64.82,23.15 a101.5,101.5 0 0 1 -0.51,13.06 c-3.18,30.56 -19.9,50.88 -33.75,64.73 C379.7200006103516,538.67 429.73000061035157,610.9 429.73000061035157,610.9 z" fill="#ec7580" id="svg_118"/><path d="M392.9000006103516,529.54 c-2.26,9 3.44,24.47 11,39.66 c-36.25,3.9 -76,1.87 -76,1.87 L287.11000061035156,582.19 L172.29000061035157,615.53 c-5,-6.47 -9,-14.6 -12.31,-23.76 l11.38,-13.28 c35.81,-21.88 47.51,-49.23 49.22,-73.31 a103,103 0 0 0 -3.16,-32.49 A108.76,108.76 0 0 0 207.48000061035157,447 l106.59,0.5 h0.9 l8.76,19.91 l0.4,0.9 l6.52,14.81 l22.22,-39.82 l7.71,-12.46 l4.32,-7 S428.80000061035156,409 429.73000061035157,447 a101.5,101.5 0 0 1 -0.51,13.06 c-3.18,30.56 -19.9,50.88 -33.75,64.73 A10,10 0 0 0 392.9000006103516,529.54 z" fill="#ec7580" id="svg_119"/><path d="M633.4600006103516,577.56 c-1.85,22.22 -55.56,-7.41 -55.56,-7.41 s-16.67,-5.5600000000000005 -73.16,-41.67 a172.48,172.48 0 0 1 -65,-75.89 a109,109 0 0 1 -5.41,-14.86 L473.25000061035155,409 l11.35,17.35 L522.3300006103516,484 l55.56,37 S635.3100006103516,555.34 633.4600006103516,577.56 z" fill="#fdc2cc" id="svg_120"/><polygon points="1127.96 650.72 60.23 650.72 167.12 619.09 434.34 540.01 604.74 489.58 824.22 489.58 1127.96 650.72" fill="#cbcdda" id="svg_121"/><polygon points="60.23 650.72 57.45 699.8 1129.81 699.8 1127.96 650.72 60.23 650.72" fill="#cbcdda" id="svg_122"/><polygon points="60.23 650.72 57.45 699.8 1129.81 699.8 1127.96 650.72 60.23 650.72" opacity="0.1" id="svg_123"/><path d="M340.1600006103516,581.31 l225.69,-23.19 l2.7800000000000002,44.45 L465.4700006103516,612.8 a67.38,67.38 0 0 1 -21.22,-1.6500000000000001 L339.9700006103516,584.21 A1.48,1.48 0 0 1 340.1600006103516,581.31 z" fill="#535461" id="svg_124"/><path d="M340.1600006103516,581.31 l225.69,-23.19 l2.7800000000000002,44.45 L465.4700006103516,612.8 a67.38,67.38 0 0 1 -21.22,-1.6500000000000001 L339.9700006103516,584.21 A1.48,1.48 0 0 1 340.1600006103516,581.31 z" opacity="0.2" id="svg_125"/><path d="M340.1600006103516,580.38 L567.7100006103516,557.19 l2.7800000000000002,44.45 L467.32000061035154,610 A67.38,67.38 0 0 1 446.11000061035156,608.38 L339.9700006103516,583.29 A1.48,1.48 0 0 1 340.1600006103516,580.38 z" fill="#535461" id="svg_126"/><path d="M394.11000061035156,582 l120.32,-12.26 l1.47,23.5 l-54.55,4.43 a35.63,35.63 0 0 1 -11.22,-0.8700000000000001 l-56.12,-13.27 A0.78,0.78 0 0 1 394.11000061035156,582 z" fill="#fff" opacity="0.3" id="svg_127"/><path d="M484.6000006103516,426.37 c-0.7300000000000001,1 -2,1.45 -3.94,1.17 c-18.52,-2.7800000000000002 -39.82,24.08 -39.82,24.08 s-0.38000000000000006,0.36000000000000004 -1.07,1 a109,109 0 0 1 -5.41,-14.86 L473.25000061035155,409 z" opacity="0.1" id="svg_128"/><path d="M429.2200006103516,460 c-8.71,4.85 -20.7,8.33 -30.05,-1 c-16.15,-16.15 -44.46,-14 -46.22,-13.9 c2.89,-0.4 5.45,-6.34 7.63,-14.3 l4.32,-7 S428.80000061035156,409 429.73000061035157,447 A101.5,101.5 0 0 1 429.2200006103516,460 z" opacity="0.1" id="svg_129"/><path d="M395.70000061035154,378.11 l-5.8,42 l-13.07,25.48 a79.68,79.68 0 0 0 -24.82,-2.33 c9.21,-1.27 15.16,-58.82 15.16,-58.82 l0.53,-0.12000000000000001 z" opacity="0.1" id="svg_130"/><path d="M480.6600006103516,425.69 c-18.52,-2.7800000000000002 -39.82,24.08 -39.82,24.08 s-25,24.08 -41.67,7.41 c-16.15,-16.15 -44.46,-14 -46.22,-13.9 C362.1600006103516,442 368.11000061035156,384.45 368.11000061035156,384.45 l0.53,-0.12000000000000001 l88.87,-19.76 s5.3,8.12 11.28,18.46 C479.5800006103516,401.66 492.5800006103516,427.48 480.6600006103516,425.69 z" fill="#ec7580" id="svg_131"/><path d="M458.43000061035156,388.65 c0.93,1.85 -14.82,11.11 -22.22,8.33 s-25.93,12 -27.78,13.89 s-43.52,-2.7800000000000002 -43.52,-2.7800000000000002 a195.82,195.82 0 0 0 3.73,-23.76 l88.87,-19.76 s5.3,8.12 11.28,18.46 C463.26000061035154,385.3 457.98000061035157,387.74 458.43000061035156,388.65 z" opacity="0.1" id="svg_132"/><path d="M404.7200006103516,312.71 l-9,65.4 l-4.24,30.74 c-12.42,-0.93 -27.48,-2.6 -27.48,-2.6 s15.74,-65.75 -10.19,-100 c0,0 0.55,0 1.54,-0.1 C369.9000006103516,330.33 404.7200006103516,312.71 404.7200006103516,312.71 z" opacity="0.1" id="svg_133"/><path d="M354.7200006103516,306.23 s47.23,-3.7 65.75,9.26 s45.38,51.86 45.38,51.86 l14.82,9.26 s-23.15,8.33 -22.22,10.19 s-14.82,11.11 -22.22,8.33 s-25.93,12 -27.78,13.89 s-43.52,-2.7800000000000002 -43.52,-2.7800000000000002 S380.6500006103516,340.49 354.7200006103516,306.23 z" fill="#ec7580" id="svg_134"/><path d="M695.9400006103516,561.35 c-10.72,-0.26 -262.75,-6.8 -286.81,-33.64 c-25.62,-28.58 -0.7500000000000001,-110.93 20.19,-170.39 c22.79,-64.73 -4.38,-157.68 -4.65,-158.74 l1.79,-0.47000000000000003 c0.28,1.07 27.59,94.56 4.61,159.82 c-32.57,92.51 -39.3,147.64 -20.56,168.54 c23.54,26.25 282.86,33 285.48,33 z" fill="#dfe6f5" id="svg_135"/><path d="M521.7000006103516,330.61 l233.14,-3.54 A22.74,22.74 0 0 1 775.1100006103516,352.41 l-26.45,220.2 a22.74,22.74 0 0 1 -21.21,20 L489.1600006103515,607.36 a22.74,22.74 0 0 1 -23.86,-26 l31.64,-231.42 A22.74,22.74 0 0 1 521.7000006103516,330.61 z" fill="#535461" id="svg_136"/><path d="M521.7000006103516,330.61 l233.14,-3.54 A22.74,22.74 0 0 1 775.1100006103516,352.41 l-26.45,220.2 a22.74,22.74 0 0 1 -21.21,20 L489.1600006103515,607.36 a22.74,22.74 0 0 1 -23.86,-26 l31.64,-231.42 A22.74,22.74 0 0 1 521.7000006103516,330.61 z" opacity="0.2" id="svg_137"/><path d="M523.5500006103516,330.61 l233.14,-3.54 a22.74,22.74 0 0 1 20.31,25.34 l-26.45,220.2 a22.74,22.74 0 0 1 -21.21,20 L491.02000061035153,607.36 a22.74,22.74 0 0 1 -23.86,-26 l31.64,-231.42 A22.74,22.74 0 0 1 523.5500006103516,330.61 z" fill="#535461" id="svg_138"/><circle cx="637.6199951171875" cy="455.7799987792969" r="11.109999656677246" fill="#fff" opacity="0.3" id="svg_139"/><path d="M403.9000006103516,569.21 c-36.25,3.9 -76,1.87 -76,1.87 L287.11000061035156,582.19 L172.29000061035157,615.53 c-5,-6.47 -9,-14.6 -12.31,-23.76 l11.38,-13.28 c35.81,-21.88 47.51,-49.23 49.22,-73.31 c3.06,23.95 3.5700000000000003,45.52 3.5700000000000003,45.52 l46.3,-4.63 l67.27,-16 a60.74,60.74 0 0 1 14.14,-1.6500000000000001 c8.76,0 24.35,0.19000000000000003 41,1.09 C390.64000061035154,538.52 396.3400006103516,554 403.9000006103516,569.21 z" opacity="0.1" id="svg_140"/><path d="M454.73000061035157,557.19 c-21.3,25 -130.57,19.45 -130.57,19.45 L283.4100006103516,587.75 L168.58000061035156,621.08 c-0.5,-0.6500000000000001 -1,-1.31 -1.46,-2 L434.3500006103516,540 C451.4100006103516,543.44 461.88000061035154,548.8 454.73000061035157,557.19 z" opacity="0.1" id="svg_141"/><path d="M454.73000061035157,555.34 c-21.3,25 -130.57,19.45 -130.57,19.45 L283.4100006103516,585.89 L168.58000061035156,619.23 c-27,-35 -26.4,-118.41 -24.93,-152.15 c0.4,-9.06 0.8500000000000001,-14.54 0.8500000000000001,-14.54 s38.89,-24.08 56.49,0 c3.14,4.29 5.77,10.29 8,17.25 c10.21,32.09 11.46,84.61 11.46,84.61 l46.3,-4.63 l67.27,-16 a60.78,60.78 0 0 1 14.15,-1.6500000000000001 C376.05000061035156,532.2 473.01000061035154,533.88 454.73000061035157,555.34 z" fill="#fdc2cc" id="svg_142"/><path d="M208.98000061035157,469.79999999999995 c-5.91,-1.28 -13.08,-1 -22.8,3.12 c-19.45,8.33 -34.26,6.48 -34.26,6.48 s1.19,-9.45 -8.26,-12.32 c0.4,-9.06 0.8500000000000001,-14.54 0.8500000000000001,-14.54 s38.89,-24.08 56.49,0 C204.11000061035156,456.83000000000004 206.76000061035157,462.83000000000004 208.98000061035157,469.79999999999995 z" opacity="0.1" id="svg_143"/><path d="M324.11000061035156,468.28999999999996 h0 c-0.6200000000000001,0.13 -8.95,1.7000000000000002 -25,-1.86 c-16.67,-3.7 -23.15,3.7 -32.41,7.41 S233.41000061035157,479.4 224.11000061035156,475.70000000000005 c-2.19,-0.8800000000000001 -4.39,-2 -6.72,-3 A108.76,108.76 0 0 0 207.48000061035157,447 l106.59,0.5 l9.66,19.91 z" opacity="0.1" id="svg_144"/><path d="M324.11000061035156,466.44000000000005 s-8.33,1.85 -25,-1.85 s-23.15,3.7 -32.41,7.41 s-33.34,5.5600000000000005 -42.6,1.85 s-18.52,-11.11 -38,-2.7800000000000002 s-34.26,6.48 -34.26,6.48 s1.85,-14.82 -17.59,-13 s-32.41,-7.41 -32.41,-7.41 l20.66,-47.72 l6.2,-14.33 L283.64000061035154,384.5 l0.7400000000000001,0 z" fill="#ec7580" id="svg_145"/><path d="M299.11000061035156,422 c-10.19,-16.67 -63.9,-1.85 -63.9,-1.85 s-25.93,7.41 -31.49,-6.48 S158.40000061035155,409 158.40000061035155,409 s-28.85,10.82 -35.83,0.44000000000000006 l6.2,-14.33 L283.64000061035154,384.5 z" opacity="0.1" id="svg_146"/><path d="M254.70000061035154,312.71 s-50.93,-10.19 -75,2.7800000000000002 S137.11000061035156,357.16 137.11000061035156,357.16 L101.91000061035157,389.57 s13.89,6.48 20.37,17.59 s36.12,0 36.12,0 s39.82,-9.26 45.38,4.63 s31.49,6.48 31.49,6.48 s53.71,-14.82 63.9,1.85 z" fill="#ec7580" id="svg_147"/><path d="M313.4100006103516,75.43 c-6.9,-1.1600000000000001 -14,-2.29 -20.84,-0.8 c-11.28,2.45 -19.88,11.6 -26.21,21.24 S255.11000061035156,116.21000000000001 247.30000061035156,124.69999999999999 c-5.23,5.69 -11.66,10.26 -16.32,16.42 c-6.86,9.07 -9.25,20.64 -11.46,31.8 c-3.24,16.38 -6.49,33 -5.06,49.67 c0.7200000000000001,8.36 2.62,16.59 3.07,25 c0.91,16.89 -4.08,33.47 -9,49.65 c-3.41,11.18 -6.93,22.57 -13.67,32.12 c-4.47,6.33 -10.2,11.63 -15.66,17.12 a9.61,9.61 0 0 0 -2.87,4.21 c-1.18,4.78 4.59,8 9,10.16 c13.49,6.73 22.34,19.86 32.83,30.68 s25.5,20.11 39.93,15.77 c4.28,-1.29 8.34,-3.74 12.8,-3.66 c3,0.05000000000000001 5.88,1.27 8.73,2.27 a65.53,65.53 0 0 0 22.07,3.7 a8.53,8.53 0 0 0 4.79,-1 c2.23,-1.51 2.66,-4.55 2.88,-7.23 c1.4100000000000001,-16.82 2.81,-33.7 1.86,-50.55 c-2.15,-38.16 -37.41,-82.3 -24,-118.11 c5.83,-15.620000000000001 16.49,-29.06 22.39,-44.65 c6.22,-16.43 28.15,-29.77 32.5,-46.8 c0.49000000000000005,-1.92 1.1600000000000001,-4 2.84,-5 c2.31,-1.42 5.32,-0.18000000000000002 7.55,1.36 c12.620000000000001,8.7 16.73,25.06 21.32,39.68 a245.14,245.14 0 0 0 13.71,34.34 c3,6 9.44,12.95 15.08,9.31 c-2.84,25.28 -19.24,47.36 -22.95,72.52 c-3.62,24.52 5.15,49.58 1.75,74.12 a76,76 0 0 1 -20.45,42 a101.68,101.68 0 0 0 37.83,0.3400000000000001 c12.69,-2.29 26.27,-8.3 30.85,-20.36 c5,-13.27 -2.73,-27.51 -6.66,-41.15 c-9.43,-32.79 -8.7,-71.57 -5.71,-105.56 c3.08,-34.95 7.7,-65.55 -0.13,-99.75 c-1.92,-8.39 -3.87,-16.85 -7.55,-24.63 c-7.74,-16.35 -23.66,-28.05 -41.11,-32.17 c-9,-2.12 -18.18,1.17 -26.56,-0.39000000000000007 c-4.22,-0.79 -8,-4.83 -12.1,-6.47 C324.56000061035155,77.31 318.92000061035156,76.35 313.4100006103516,75.43 z" opacity="0.1" id="svg_148"/><path d="M429.5900006103516,387.66 c-4.58,12.06 -18.16,18.07 -30.86,20.36 a101.89,101.89 0 0 1 -37.83,-0.3400000000000001 a76.06,76.06 0 0 0 20.45,-42 c3.41,-24.55 -5.36,-49.61 -1.75,-74.12 c3.71,-25.17 20.11,-47.25 22.95,-72.53 c-5.640000000000001,3.64 -12.13,-3.2800000000000002 -15.09,-9.31 a245.69,245.69 0 0 1 -13.71,-34.34 c-4.59,-14.620000000000001 -8.7,-31 -21.32,-39.68 c-2.23,-1.54 -5.24,-2.7800000000000002 -7.55,-1.35 c-1.6900000000000002,1 -2.35,3.11 -2.84,5 c-4.34,17 -26.28,30.36 -32.49,46.79 c-5.91,15.59 -16.57,29 -22.4,44.65 c-13.36,35.8 21.9,79.94 24,118.1 c0.9400000000000001,16.85 -0.46,33.74 -1.86,50.55 c-0.23,2.6900000000000004 -0.6600000000000001,5.73 -2.89,7.24 a8.51,8.51 0 0 1 -4.78,1 A65.31,65.31 0 0 1 279.61000061035156,404 c-2.85,-1 -5.71,-2.22 -8.73,-2.27 c-4.46,-0.07 -8.52,2.38 -12.8,3.66 c-14.43,4.34 -29.45,-4.95 -39.93,-15.77 S198.79000061035157,365.69 185.31000061035155,359 c-4.41,-2.2 -10.18,-5.38 -9,-10.17 a9.68,9.68 0 0 1 2.87,-4.2 c5.46,-5.49 11.2,-10.8 15.67,-17.12 c6.74,-9.55 10.25,-20.94 13.67,-32.12 c4.94,-16.18 9.93,-32.76 9,-49.65 c-0.44000000000000006,-8.37 -2.34,-16.6 -3.07,-25 c-1.44,-16.64 1.82,-33.28 5.06,-49.66 c2.2,-11.16 4.59,-22.73 11.46,-31.8 c4.67,-6.16 11.09,-10.73 16.33,-16.42 c7.82,-8.49 12.72,-19.19 19.06,-28.84 s14.94,-18.79 26.22,-21.24 c6.83,-1.49 13.94,-0.35000000000000003 20.84,0.8 c5.51,0.93 11.15,1.8900000000000001 16.36,4 c4.11,1.6400000000000001 7.890000000000001,5.69 12.1,6.46 c8.38,1.57 17.59,-1.7200000000000002 26.56,0.4 c17.45,4.11 33.37,15.81 41.11,32.16 a73.61,73.61 0 0 1 3.8200000000000003,10 c1.48,4.8 2.6100000000000003,9.71 3.73,14.61 c0.24000000000000002,1 0.47000000000000003,2.08 0.6900000000000002,3.11 h0 c6.85,32.56 2.43,56.27 -0.56,90.14 s-3.72,79.25 5.7,112 C426.86000061035156,360.14 434.63000061035154,374.39 429.5900006103516,387.66 z" fill="#865a61" id="svg_149"/><path d="M322.7700006103516,446.53 s7.41,12 7.41,20.37 c0,0 5.5600000000000005,-20.37 10.19,-20.37 " opacity="0.05" id="svg_150"/><path d="M305.17000061035156,449.3 v61.12 a44.25,44.25 0 0 1 -9.54,27.51 a45.65,45.65 0 0 1 -3.39,3.8200000000000003 a44.45,44.45 0 0 1 -63,0 a45.66,45.66 0 0 1 -3.39,-3.8200000000000003 a44.25,44.25 0 0 1 -9.54,-27.51 V449.3 a44.21,44.21 0 0 1 10.27,-28.42 a42.24,42.24 0 0 1 3.81,-4 a44.41,44.41 0 0 1 60.75,0 c0.36000000000000004,0.32000000000000006 0.7100000000000001,0.6700000000000002 1.06,1 c1,1 1.87,2 2.75,3 A44.21,44.21 0 0 1 305.17000061035156,449.3 z" fill="#dfe6f5" id="svg_151"/><path d="M305.17000061035156,449.3 v61.12 a44.25,44.25 0 0 1 -9.54,27.51 a45.65,45.65 0 0 1 -3.39,3.8200000000000003 a44.45,44.45 0 0 1 -63,0 a45.66,45.66 0 0 1 -3.39,-3.8200000000000003 a44.25,44.25 0 0 1 -9.54,-27.51 V449.3 a44.21,44.21 0 0 1 10.27,-28.42 a42.24,42.24 0 0 1 3.81,-4 a44.41,44.41 0 0 1 60.75,0 c0.36000000000000004,0.32000000000000006 0.7100000000000001,0.6700000000000002 1.06,1 c1,1 1.87,2 2.75,3 A44.21,44.21 0 0 1 305.17000061035156,449.3 z" opacity="0.1" id="svg_152"/><path d="M307.0300006103516,449.3 v61.12 a44.25,44.25 0 0 1 -9.54,27.51 a45.65,45.65 0 0 1 -3.39,3.8200000000000003 a44.45,44.45 0 0 1 -63,0 a45.66,45.66 0 0 1 -3.39,-3.8200000000000003 A44.25,44.25 0 0 1 218.11000061035156,510.41999999999996 V449.3 a44.21,44.21 0 0 1 10.27,-28.42 a42.24,42.24 0 0 1 3.81,-4 a44.41,44.41 0 0 1 60.75,0 c0.36000000000000004,0.32000000000000006 0.7100000000000001,0.6700000000000002 1.06,1 c1,1 1.87,2 2.75,3 A44.21,44.21 0 0 1 307.0300006103516,449.3 z" fill="#dfe6f5" id="svg_153"/><circle cx="243.1199951171875" cy="418.739990234375" r="2.7799999713897705" opacity="0.1" id="svg_154"/><circle cx="243.1199951171875" cy="428" r="2.7799999713897705" opacity="0.1" id="svg_155"/><circle cx="243.1199951171875" cy="437.260009765625" r="2.7799999713897705" opacity="0.1" id="svg_156"/><circle cx="243.1199951171875" cy="446.5199890136719" r="2.7799999713897705" opacity="0.1" id="svg_157"/><circle cx="243.1199951171875" cy="455.7799987792969" r="2.7799999713897705" opacity="0.1" id="svg_158"/><circle cx="243.1199951171875" cy="465.0400085449219" r="2.7799999713897705" opacity="0.1" id="svg_159"/><circle cx="243.1199951171875" cy="474.29998779296875" r="2.7799999713897705" opacity="0.1" id="svg_160"/><circle cx="243.1199951171875" cy="483.57000732421875" r="2.7799999713897705" opacity="0.1" id="svg_161"/><circle cx="243.1199951171875" cy="492.8299865722656" r="2.7799999713897705" opacity="0.1" id="svg_162"/><circle cx="243.1199951171875" cy="502.0899963378906" r="2.7799999713897705" opacity="0.1" id="svg_163"/><circle cx="243.1199951171875" cy="511.3500061035156" r="2.7799999713897705" opacity="0.1" id="svg_164"/><circle cx="243.1199951171875" cy="520.6099853515625" r="2.7799999713897705" opacity="0.1" id="svg_165"/><circle cx="243.1199951171875" cy="529.8699951171875" r="2.7799999713897705" opacity="0.1" id="svg_166"/><circle cx="243.1199951171875" cy="539.1300048828125" r="2.7799999713897705" opacity="0.1" id="svg_167"/><path d="M232.94000061035155,418.74 a2.7800000000000002,2.7800000000000002 0 0 1 -4.55,2.14 a42.24,42.24 0 0 1 3.81,-4 A2.72,2.72 0 0 1 232.94000061035155,418.74 z" opacity="0.1" id="svg_168"/><circle cx="230.16000366210938" cy="428" r="2.7799999713897705" opacity="0.1" id="svg_169"/><circle cx="230.16000366210938" cy="437.260009765625" r="2.7799999713897705" opacity="0.1" id="svg_170"/><circle cx="230.16000366210938" cy="446.5199890136719" r="2.7799999713897705" opacity="0.1" id="svg_171"/><circle cx="230.16000366210938" cy="455.7799987792969" r="2.7799999713897705" opacity="0.1" id="svg_172"/><circle cx="230.16000366210938" cy="465.0400085449219" r="2.7799999713897705" opacity="0.1" id="svg_173"/><circle cx="230.16000366210938" cy="474.29998779296875" r="2.7799999713897705" opacity="0.1" id="svg_174"/><circle cx="230.16000366210938" cy="483.57000732421875" r="2.7799999713897705" opacity="0.1" id="svg_175"/><circle cx="230.16000366210938" cy="492.8299865722656" r="2.7799999713897705" opacity="0.1" id="svg_176"/><circle cx="230.16000366210938" cy="502.0899963378906" r="2.7799999713897705" opacity="0.1" id="svg_177"/><circle cx="230.16000366210938" cy="511.3500061035156" r="2.7799999713897705" opacity="0.1" id="svg_178"/><circle cx="230.16000366210938" cy="520.6099853515625" r="2.7799999713897705" opacity="0.1" id="svg_179"/><circle cx="230.16000366210938" cy="529.8699951171875" r="2.7799999713897705" opacity="0.1" id="svg_180"/><path d="M232.94000061035155,539.13 a2.77,2.77 0 0 1 -1.8900000000000001,2.63 a45.66,45.66 0 0 1 -3.39,-3.8200000000000003 a2.77,2.77 0 0 1 5.28,1.19 z" opacity="0.1" id="svg_181"/><circle cx="256.0899963378906" cy="418.739990234375" r="2.7799999713897705" opacity="0.1" id="svg_182"/><circle cx="256.0899963378906" cy="428" r="2.7799999713897705" opacity="0.1" id="svg_183"/><circle cx="256.0899963378906" cy="437.260009765625" r="2.7799999713897705" opacity="0.1" id="svg_184"/><circle cx="256.0899963378906" cy="446.5199890136719" r="2.7799999713897705" opacity="0.1" id="svg_185"/><circle cx="256.0899963378906" cy="455.7799987792969" r="2.7799999713897705" opacity="0.1" id="svg_186"/><circle cx="256.0899963378906" cy="465.0400085449219" r="2.7799999713897705" opacity="0.1" id="svg_187"/><circle cx="256.0899963378906" cy="474.29998779296875" r="2.7799999713897705" opacity="0.1" id="svg_188"/><circle cx="256.0899963378906" cy="483.57000732421875" r="2.7799999713897705" opacity="0.1" id="svg_189"/><circle cx="256.0899963378906" cy="492.8299865722656" r="2.7799999713897705" opacity="0.1" id="svg_190"/><circle cx="256.0899963378906" cy="502.0899963378906" r="2.7799999713897705" opacity="0.1" id="svg_191"/><circle cx="256.0899963378906" cy="511.3500061035156" r="2.7799999713897705" opacity="0.1" id="svg_192"/><circle cx="256.0899963378906" cy="520.6099853515625" r="2.7799999713897705" opacity="0.1" id="svg_193"/><circle cx="256.0899963378906" cy="529.8699951171875" r="2.7799999713897705" opacity="0.1" id="svg_194"/><circle cx="256.0899963378906" cy="539.1300048828125" r="2.7799999713897705" opacity="0.1" id="svg_195"/><circle cx="269.04998779296875" cy="418.739990234375" r="2.7799999713897705" opacity="0.1" id="svg_196"/><circle cx="269.04998779296875" cy="428" r="2.7799999713897705" opacity="0.1" id="svg_197"/><circle cx="269.04998779296875" cy="437.260009765625" r="2.7799999713897705" opacity="0.1" id="svg_198"/><circle cx="269.04998779296875" cy="446.5199890136719" r="2.7799999713897705" opacity="0.1" id="svg_199"/><circle cx="269.04998779296875" cy="455.7799987792969" r="2.7799999713897705" opacity="0.1" id="svg_200"/><circle cx="269.04998779296875" cy="465.0400085449219" r="2.7799999713897705" opacity="0.1" id="svg_201"/><circle cx="269.04998779296875" cy="474.29998779296875" r="2.7799999713897705" opacity="0.1" id="svg_202"/><circle cx="269.04998779296875" cy="483.57000732421875" r="2.7799999713897705" opacity="0.1" id="svg_203"/><circle cx="269.04998779296875" cy="492.8299865722656" r="2.7799999713897705" opacity="0.1" id="svg_204"/><circle cx="269.04998779296875" cy="502.0899963378906" r="2.7799999713897705" opacity="0.1" id="svg_205"/><circle cx="269.04998779296875" cy="511.3500061035156" r="2.7799999713897705" opacity="0.1" id="svg_206"/><circle cx="269.04998779296875" cy="520.6099853515625" r="2.7799999713897705" opacity="0.1" id="svg_207"/><circle cx="269.04998779296875" cy="529.8699951171875" r="2.7799999713897705" opacity="0.1" id="svg_208"/><circle cx="269.04998779296875" cy="539.1300048828125" r="2.7799999713897705" opacity="0.1" id="svg_209"/><circle cx="282.0199890136719" cy="418.739990234375" r="2.7799999713897705" opacity="0.1" id="svg_210"/><circle cx="282.0199890136719" cy="428" r="2.7799999713897705" opacity="0.1" id="svg_211"/><circle cx="282.0199890136719" cy="437.260009765625" r="2.7799999713897705" opacity="0.1" id="svg_212"/><circle cx="282.0199890136719" cy="446.5199890136719" r="2.7799999713897705" opacity="0.1" id="svg_213"/><circle cx="282.0199890136719" cy="455.7799987792969" r="2.7799999713897705" opacity="0.1" id="svg_214"/><circle cx="282.0199890136719" cy="465.0400085449219" r="2.7799999713897705" opacity="0.1" id="svg_215"/><circle cx="282.0199890136719" cy="474.29998779296875" r="2.7799999713897705" opacity="0.1" id="svg_216"/><circle cx="282.0199890136719" cy="483.57000732421875" r="2.7799999713897705" opacity="0.1" id="svg_217"/><circle cx="282.0199890136719" cy="492.8299865722656" r="2.7799999713897705" opacity="0.1" id="svg_218"/><circle cx="282.0199890136719" cy="502.0899963378906" r="2.7799999713897705" opacity="0.1" id="svg_219"/><circle cx="282.0199890136719" cy="511.3500061035156" r="2.7799999713897705" opacity="0.1" id="svg_220"/><circle cx="282.0199890136719" cy="520.6099853515625" r="2.7799999713897705" opacity="0.1" id="svg_221"/><circle cx="282.0199890136719" cy="529.8699951171875" r="2.7799999713897705" opacity="0.1" id="svg_222"/><circle cx="282.0199890136719" cy="539.1300048828125" r="2.7799999713897705" opacity="0.1" id="svg_223"/><path d="M296.76000061035154,420.88 a2.7800000000000002,2.7800000000000002 0 0 1 -4.55,-2.14 a2.72,2.72 0 0 1 0.7400000000000001,-1.8800000000000001 c0.36000000000000004,0.32000000000000006 0.7100000000000001,0.6700000000000002 1.06,1 C294.9700006103516,418.84 295.88000061035154,419.84 296.76000061035154,420.88 z" opacity="0.1" id="svg_224"/><circle cx="294.9800109863281" cy="428" r="2.7799999713897705" opacity="0.1" id="svg_225"/><circle cx="294.9800109863281" cy="437.260009765625" r="2.7799999713897705" opacity="0.1" id="svg_226"/><circle cx="294.9800109863281" cy="446.5199890136719" r="2.7799999713897705" opacity="0.1" id="svg_227"/><circle cx="294.9800109863281" cy="455.7799987792969" r="2.7799999713897705" opacity="0.1" id="svg_228"/><circle cx="294.9800109863281" cy="465.0400085449219" r="2.7799999713897705" opacity="0.1" id="svg_229"/><circle cx="294.9800109863281" cy="474.29998779296875" r="2.7799999713897705" opacity="0.1" id="svg_230"/><circle cx="294.9800109863281" cy="483.57000732421875" r="2.7799999713897705" opacity="0.1" id="svg_231"/><circle cx="294.9800109863281" cy="492.8299865722656" r="2.7799999713897705" opacity="0.1" id="svg_232"/><circle cx="294.9800109863281" cy="502.0899963378906" r="2.7799999713897705" opacity="0.1" id="svg_233"/><circle cx="294.9800109863281" cy="511.3500061035156" r="2.7799999713897705" opacity="0.1" id="svg_234"/><circle cx="294.9800109863281" cy="520.6099853515625" r="2.7799999713897705" opacity="0.1" id="svg_235"/><circle cx="294.9800109863281" cy="529.8699951171875" r="2.7799999713897705" opacity="0.1" id="svg_236"/><path d="M297.49000061035156,537.93 a45.65,45.65 0 0 1 -3.39,3.8200000000000003 a2.7800000000000002,2.7800000000000002 0 1 1 3.39,-3.8200000000000003 z" opacity="0.1" id="svg_237"/><rect x="254.24000549316406" y="505.7900085449219" width="12.960000038146973" height="124.08999633789062" rx="5.400000095367432" ry="5.400000095367432" fill="#54576b" id="svg_238"/><rect x="216.27000427246094" y="613.2100219726562" width="88.9000015258789" height="16.670000076293945" rx="6.949999809265137" ry="6.949999809265137" fill="#54576b" id="svg_239"/><rect x="254.24000549316406" y="505.7900085449219" width="12.960000038146973" height="124.08999633789062" rx="5.400000095367432" ry="5.400000095367432" opacity="0.1" id="svg_240"/><rect x="216.27000427246094" y="613.2100219726562" width="88.9000015258789" height="16.670000076293945" rx="6.949999809265137" ry="6.949999809265137" opacity="0.1" id="svg_241"/><rect x="256.0899963378906" y="505.7900085449219" width="12.960000038146973" height="124.08999633789062" rx="5.400000095367432" ry="5.400000095367432" fill="#54576b" id="svg_242"/><rect x="218.1199951171875" y="613.2100219726562" width="88.9000015258789" height="16.670000076293945" rx="6.949999809265137" ry="6.949999809265137" fill="#54576b" id="svg_243"/><path d="M339.7700006103516,516.29 a87,87 0 0 1 -158.1,0 c-9.21,-13.21 -17.26,-39.55 -17.26,-36.42 a96.31,96.31 0 1 0 192.62,0 C357.0300006103516,476.74 348.98000061035157,503.08000000000004 339.7700006103516,516.29 z" fill="#54576b" id="svg_244"/><path d="M260.7200006103516,383.55 a96.27,96.27 0 0 0 -79.05,41.36 a86.53,86.53 0 0 0 -8,36.42 a87.62,87.62 0 0 0 0.49000000000000005,9.26 a87,87 0 0 1 173.11,0 a87.6,87.6 0 0 0 0.49000000000000005,-9.26 a86.53,86.53 0 0 0 -8,-36.42 A96.27,96.27 0 0 0 260.7200006103516,383.55 z" fill="#54576b" id="svg_245"/><circle cx="262.57000732421875" cy="517.8300170898438" r="3.700000047683716" opacity="0.1" id="svg_246"/><circle cx="436.20001220703125" cy="608.1199951171875" r="1.3899999856948853" opacity="0.2" id="svg_247"/><path d="M383.76000061035154,636.08 a37.16,37.16 0 0 1 -16,-3.51 c-18.66,-8.78 -27.86,-7.67 -41.78,-6 A196.08,196.08 0 0 1 286.6000006103516,628 a24.65,24.65 0 0 1 -18.7,-10 c-20.64,-26.8 -6.83,-97.36 -6.23,-100.35 a0.93,0.93 0 0 1 1.82,0.36000000000000004 c-0.14,0.7200000000000001 -14.25,72.72 5.88,98.85 a22.87,22.87 0 0 0 17.35,9.31 a194.08,194.08 0 0 0 39,-1.4300000000000002 c14.24,-1.7200000000000002 23.65,-2.8600000000000003 42.79,6.15 c30.53,14.37 66.31,-22.18 66.66,-22.55 a0.93,0.93 0 0 1 1.33,1.29 C436.23000061035157,609.95 410.64000061035154,636.08 383.76000061035154,636.08 z" fill="#dfe6f5" id="svg_248"/><path d="M417.7800006103516,144.31 c-15.29,-27.55 -46.33,-46.44 -82,-46.44 c-50.8,0 -92.14,38.22 -92.14,85.2 H237.11000061035156 c0,-50.55 44.25,-91.68 98.62,-91.68 c31.48,0 59.56,13.78 77.63,35.2 c1.48,4.8 2.6100000000000003,9.71 3.73,14.61 C417.3400006103516,142.25 417.57000061035154,143.28 417.7800006103516,144.31 z" fill="#535461" id="svg_249"/><path d="M250.89,156h8.53a0,0,0,0,1,0,0v59a0,0,0,0,1,0,0h-8.53a24.56,24.56,0,0,1-24.56-24.56v-9.82A24.56,24.56,0,0,1,250.89,156Z" fill="#dfe6f5" id="svg_250"/><rect x="252.17999267578125" y="156.0500030517578" width="14.479999542236328" height="58.95000076293945" rx="6.03000020980835" ry="6.03000020980835" fill="#535461" id="svg_251"/><path d="M801.8300006103516,579.91 s-15.88,-5.38 -23.52,8.61 a25.52,25.52 0 0 0 0.3400000000000001,24.57 c5,9.07 15.36,20.85 35,19.8 c16.62,-0.8900000000000001 22.15,-13.57 23.65,-25.37 a26.06,26.06 0 0 0 -34.61,-27.9 z" fill="#22a6b3" id="svg_252" class="" fill-opacity="1"/><path d="M782.0100006103515,614.35 a25.52,25.52 0 0 1 -0.3400000000000001,-24.57 c7.640000000000001,-14 23.52,-8.61 23.52,-8.61 l0.81,-0.29000000000000004 a25.83,25.83 0 0 1 18.66,0.42000000000000004 a25.84,25.84 0 0 0 -22,-2.1 l-0.81,0.29000000000000004 s-15.88,-5.38 -23.52,8.61 a25.52,25.52 0 0 0 0.3400000000000001,24.57 c3.31,6 8.92,13.11 18,17 A39.35,39.35 0 0 1 782.0100006103515,614.35 z" fill="#fff" opacity="0.1" id="svg_253" class=""/><path d="M793.6300006103515,586.64 s5.890000000000001,4.63 20.18,0 " opacity="0.2" id="svg_254"/><path d="M792.3700006103516,553 s10.09,27.33 9.25,34.48 l8,-0.8400000000000001 S796.1100006103516,562.67 799.5200006103515,553 z" fill="#6c63ff" id="svg_255"/><path d="M792.3700006103516,553 s10.09,27.33 9.25,34.48 l8,-0.8400000000000001 S796.1100006103516,562.67 799.5200006103515,553 z" opacity="0.2" id="svg_256" class="" fill-opacity="1" fill="#0496a3"/><path d="M833.5600006103516,555.28 s-15.88,-8.12 -23,-1.4100000000000001 s-8.2,23.86 -8.2,23.86 S828.2700006103515,581.3 833.5600006103516,555.28 z" fill="#6c63ff" id="svg_257"/><path d="M833.5600006103516,555.28 s-15.88,-8.12 -23,-1.4100000000000001 s-8.2,23.86 -8.2,23.86 S828.2700006103515,581.3 833.5600006103516,555.28 z" fill="#22a6b3" opacity="0.1" id="svg_258" class="" fill-opacity="1"/><path d="M802.3700006103516,577.73 s4.17,-19.91 31.19,-22.45 " fill="#22a6b3" stroke="#6c63ff" stroke-miterlimit="10" id="svg_259" class="" fill-opacity="1"/></g></svg>