<svg xmlns="http://www.w3.org/2000/svg" xmlns:xlink="http://www.w3.org/1999/xlink" data-name="Layer 1" width="1113.58" height="784.41" style=""><rect id="backgroundrect" width="100%" height="100%" x="0" y="0" fill="none" stroke="none"/><defs><linearGradient id="e697e668-bf6d-4d5c-9412-9fae30629717" x1="0.9998277364570456" y1="0.5000004074084234" x2="0.00018707353081023106" y2="0.5000004074084234"><stop offset="0" stop-color="gray" stop-opacity="0.25"/><stop offset="0.54" stop-color="gray" stop-opacity="0.12"/><stop offset="1" stop-color="gray" stop-opacity="0.1"/></linearGradient></defs><title>visual data</title><g class="currentLayer" style=""><title>Layer 1</title><ellipse cx="965" cy="767.4199829101562" rx="64" ry="16.989999771118164" fill="#22a6b3" opacity="0.1" id="svg_1" class="" fill-opacity="1"/><path d="M1070.5500009155273,694.8899990844726 c-24.35,20.2 -59,28.56 -92.51,33.84 l-5.640000000000001,0.8600000000000001 c-35,5.22 -70.39,8 -105.9,9.69 c-19,0.92 -38,1.57 -57,2.15 l-14.89,0.44000000000000006 q-29,0.8600000000000001 -58.11,1.6900000000000002 q-28.5,0.81 -57,1.52 q-36.5,0.8900000000000001 -73,1.48 q-28.5,0.45 -57,0.6200000000000001 q-36.51,0.21000000000000002 -73,-0.14 q-28.52,-0.29000000000000004 -57,-1 q-36.52,-0.9400000000000001 -73,-2.75 q-24.76,-1.21 -49.49,-2.91 l-7.51,-0.53 c-70.77,-5.1 -142.81,-14.25 -204.74,-43.17 l-1.6700000000000002,-0.79 c-0.8300000000000001,-0.39000000000000007 -1.6600000000000001,-0.78 -2.49,-1.19 a224.11,224.11 0 0 1 -32.56,-19.09 c-18.31,-13.06 -33.43,-29 -41.42,-47.91 c-12.52,-29.66 -5.9,-63 8.4,-92 S50.790000915527344,480.5199990844726 69.36000091552734,453.20999908447266 c5.44,-8 10.6,-16.3 15.4,-24.81 c30,-53.37 44.88,-115.13 13.43,-166.56 a228.58,228.58 0 0 0 -13.43,-19 c-7.67,-10 -15.47,-20 -20.74,-31.07 c-12.29,-25.76 -9.65,-54.73 -5.17,-82.25 c6,-36.59 17,-76 51.38,-98.86 c35.67,-23.74 86.3,-22.54 130.57,-14 c68.83,13.19 132.36,40.8 196.49,65.7 s131.31,47.67 201.82,50.12 a322.09,322.09 0 0 0 45.38,-1.6500000000000001 h0 a287.81,287.81 0 0 0 59.12,-12.45 c27.75,-9.14 53,-22.89 71.72,-42 c40.15,-40.85 115.6,-43.94 170,-19.27 c51.91,23.54 85.48,73.36 83,123.12 c-2.8200000000000003,55.39 -44.3,100.93 -82.31,147.64 c-4.61,5.66 -9.16,11.34 -13.59,17.06 q-3.71,4.79 -7.28,9.6 h0 c-4.17,5.66 -8.2,11.35 -12,17.11 c-19.42,29.53 -33.15,65 -19.78,96.88 c7.5,17.85 21.81,31.47 39.06,43.36 c38.65,26.63 92,44.55 116,81.83 C1109.1100009155273,625.8399990844727 1101.4500009155274,669.2099990844727 1070.5500009155273,694.8899990844726 z" fill="#22a6b3" opacity="0.1" id="svg_2" class="" fill-opacity="1"/><g opacity="0.1" id="svg_3" class="" transform="translate(0.9090908765792847,0) " fill-opacity="1" fill="#22a6b3"><path d="M555.5000009155274,549.3499990844726 q0.06000000000000001,1.4100000000000001 0.21000000000000002,2.7600000000000002 q11.67,-4.65 22.91,-10 a18.57,18.57 0 0 0 10.59,-5.18 c2.19,-1.1 4.37,-2.25 6.53,-3.4 a26.82,26.82 0 0 0 -1.6600000000000001,-3 c-4.21,-6.65 -10.61,-10.81 -17.66,-10.58 s-13.15,4.8 -16.92,11.69 A34.46,34.46 0 0 0 555.5000009155274,549.3499990844726 z" fill="#22a6b3" id="svg_4"/><path d="M554.3500009155273,514.3799990844726 a34.57,34.57 0 0 0 5.15,17.32 c4.22,6.63 10.620000000000001,10.79 17.67,10.56 c0.49000000000000005,0 1,-0.07 1.45,-0.11000000000000001 a18.57,18.57 0 0 0 10.59,-5.18 a25.47,25.47 0 0 0 4.87,-6.38 a35.82,35.82 0 0 0 -1.1400000000000001,-35 c-4.22,-6.65 -10.620000000000001,-10.81 -17.67,-10.58 s-13.14,4.8 -16.91,11.69 A34.47,34.47 0 0 0 554.3500009155273,514.3799990844726 z" fill="#22a6b3" id="svg_5"/><ellipse cx="557.8100280761719" cy="499.2499809265137" rx="21.8700008392334" ry="28.6299991607666" transform="rotate(-1.8799999952316284 -60.470001220703836,-37.2299995422364) " fill="#22a6b3" id="svg_6"/><ellipse cx="557.8100051879883" cy="464.2300109863281" rx="21.8700008392334" ry="28.6299991607666" transform="rotate(-1.8799999952316284 -59.31999969482396,-37.279998779297) " fill="#22a6b3" id="svg_7"/><ellipse cx="557.8099899291992" cy="429.200008392334" rx="21.8700008392334" ry="28.6299991607666" transform="rotate(-1.8799999952316284 -58.18000030517583,-37.340000152587955) " fill="#22a6b3" id="svg_8"/><path d="M646.7900009155273,166.76999908447266 a104.08,104.08 0 0 0 7.74,-12.25 L596.7900009155273,146.97999908447267 l62.12,-1.58 a104.89,104.89 0 0 0 -0.7200000000000001,-83 l-81.91,45.95 l75,-59 A104.75,104.75 0 1 0 482.17000091552734,172.20999908447266 a105.16,105.16 0 0 0 -11.31,19.48 l75.81,36.28 l-80.36,-24.06 a104.8,104.8 0 0 0 20.11,97.75 A104.74,104.74 0 1 0 650.9800009155274,296.20999908447266 A104.77,104.77 0 0 0 646.7900009155273,166.76999908447266 z" fill="#22a6b3" id="svg_9"/><path d="M461.89000091552737,237.62999908447267 a104.26,104.26 0 0 0 24.53,64 A104.74,104.74 0 1 0 650.9800009155274,296.20999908447266 C664.4300009155273,277.94999908447267 461.51000091552737,225.87999908447267 461.89000091552737,237.62999908447267 z" opacity="0.1" id="svg_10" fill="#22a6b3"/></g><g opacity="0.1" id="svg_11" class="" fill-opacity="1" fill="#22a6b3"><path d="M326.18000091552733,733.5599990844727 c0,0.6600000000000001 -0.07,1.32 -0.15000000000000002,2 q-8.3,-3.3 -16.31,-7.07 a13.21,13.21 0 0 1 -7.54,-3.67 q-2.34,-1.19 -4.65,-2.42 a18.9,18.9 0 0 1 1.18,-2.12 c3,-4.74 7.54,-7.7 12.56,-7.54 s9.36,3.4 12,8.3 A24.5,24.5 0 0 1 326.18000091552733,733.5599990844727 z" fill="#22a6b3" id="svg_12"/><path d="M326.96000091552736,708.6699990844727 a24.59,24.59 0 0 1 -3.64,12.33 c-3,4.72 -7.55,7.69 -12.56,7.53 l-1,-0.08000000000000002 a13.21,13.21 0 0 1 -7.54,-3.67 a18,18 0 0 1 -3.47,-4.54 a25.53,25.53 0 0 1 0.78,-24.89 c3,-4.74 7.55,-7.7 12.56,-7.54 s9.36,3.4 12.05,8.3 A24.5,24.5 0 0 1 326.96000091552736,708.6699990844727 z" fill="#22a6b3" id="svg_13"/><ellipse cx="-84.32000732421875" cy="1756.2300415039062" rx="20.3700008392334" ry="15.5600004196167" transform="rotate(-88.19000244140625 -439.7200012207032,1015.1500244140626) " fill="#22a6b3" id="svg_14"/><ellipse cx="-57.910003662109375" cy="1708.02001953125" rx="20.3700008392334" ry="15.5600004196167" transform="rotate(-88.19000244140625 -414.08999633789074,991.8300170898436) " fill="#22a6b3" id="svg_15"/><ellipse cx="-31.480010986328125" cy="1659.8099975585938" rx="20.3700008392334" ry="15.5600004196167" transform="rotate(-88.19000244140625 -388.45001220703136,968.5100097656249) " fill="#22a6b3" id="svg_16"/><path d="M260.91000091552735,461.3799990844726 a75.81,75.81 0 0 1 -5.53,-8.71 L296.46000091552736,447.20999908447266 L252.25000091552732,446.20999908447266 a74.64,74.64 0 0 1 0.44000000000000006,-59.08 l58.33,32.63 L257.60000091552735,377.8099990844727 a74.54,74.54 0 1 1 120.42,87.26 a74.43,74.43 0 0 1 8.07,13.86 L332.17000091552734,504.8099990844727 l57.17,-17.2 A74.65,74.65 0 0 1 375.1200009155273,557.2099990844727 a74.54,74.54 0 1 1 -117.12,-3.7 a74.54,74.54 0 0 1 2.91,-92.12 z" fill="#22a6b3" id="svg_17"/><path d="M392.51000091552737,511.6399990844726 A74.27,74.27 0 0 1 375.1200009155273,557.2099990844727 a74.54,74.54 0 1 1 -117.12,-3.7 C248.41000091552735,540.5099990844726 392.79000091552734,503.2699990844726 392.51000091552737,511.6399990844726 z" opacity="0.1" id="svg_18" fill="#22a6b3"/></g><g opacity="0.1" id="svg_19" class="" fill-opacity="1" fill="#22a6b3"><path d="M846.9500009155273,603.5099990844726 c0,0.6700000000000002 -0.07,1.32 -0.14,2 q-8.31,-3.3 -16.31,-7.07 a13.26,13.26 0 0 1 -7.55,-3.67 c-1.55,-0.79 -3.11,-1.6 -4.65,-2.42 a20.63,20.63 0 0 1 1.18,-2.12 c3,-4.74 7.54,-7.7 12.56,-7.54 s9.36,3.4 12,8.3 A24.5,24.5 0 0 1 846.9500009155273,603.5099990844726 z" fill="#22a6b3" id="svg_20"/><path d="M847.7900009155273,578.6199990844726 a24.59,24.59 0 0 1 -3.6500000000000004,12.33 c-3,4.72 -7.54,7.69 -12.56,7.53 l-1,-0.08000000000000002 a13.26,13.26 0 0 1 -7.55,-3.67 a18.32,18.32 0 0 1 -3.47,-4.54 a25.53,25.53 0 0 1 0.78,-24.89 c3,-4.73 7.55,-7.7 12.56,-7.54 s9.37,3.4 12.05,8.3 A24.5,24.5 0 0 1 847.7900009155273,578.6199990844726 z" fill="#22a6b3" id="svg_21"/><ellipse cx="1070.7899780273438" cy="2020.739990234375" rx="20.3700008392334" ry="15.5600004196167" transform="rotate(-88.19000244140625 194.61999511718759,1409.7099609375) " fill="#22a6b3" id="svg_22"/><ellipse cx="1097.2200164794922" cy="1972.5400390625" rx="20.3700008392334" ry="15.5600004196167" transform="rotate(-88.19000244140625 220.25999450683588,1386.4000244140625) " fill="#22a6b3" id="svg_23"/><ellipse cx="1123.6299896240234" cy="1924.3399658203125" rx="20.3700008392334" ry="15.5600004196167" transform="rotate(-88.19000244140625 245.8899993896484,1363.0799560546875) " fill="#22a6b3" id="svg_24"/><path d="M781.6800009155273,331.32999908447266 a73.57,73.57 0 0 1 -5.52,-8.71 L817.2400009155274,317.20999908447266 l-44.21,-1.07 a74.7,74.7 0 0 1 0.43000000000000005,-59.08 L831.7900009155273,289.6899990844727 l-53.42,-41.93 A74.55,74.55 0 1 1 898.7900009155273,335.01999908447266 a74.39,74.39 0 0 1 8.06,13.86 l-53.92,25.88 l57.17,-17.2 a74.57,74.57 0 0 1 -14.22,69.59 A74.53,74.53 0 1 1 778.7900009155273,423.44999908447267 a74.54,74.54 0 0 1 2.91,-92.12 z" fill="#22a6b3" id="svg_25"/><path d="M913.2900009155273,381.58999908447265 a74.2,74.2 0 0 1 -17.4,45.56 A74.53,74.53 0 1 1 778.7900009155273,423.44999908447267 C769.1900009155273,410.45999908447266 913.5500009155273,373.20999908447266 913.2900009155273,381.58999908447265 z" opacity="0.1" id="svg_26" fill="#22a6b3"/></g><ellipse cx="193.5" cy="750.8900146484375" rx="57.0099983215332" ry="10.960000038146973" fill="#22a6b3" id="svg_27" class="" fill-opacity="1"/><ellipse cx="192.5500030517578" cy="746.22998046875" rx="6.639999866485596" ry="8.6899995803833" fill="#3f3d56" id="svg_28"/><ellipse cx="192.5500030517578" cy="735.6099853515625" rx="6.639999866485596" ry="8.6899995803833" fill="#3f3d56" id="svg_29"/><ellipse cx="192.5500030517578" cy="724.989990234375" rx="6.639999866485596" ry="8.6899995803833" fill="#3f3d56" id="svg_30"/><ellipse cx="192.5500030517578" cy="714.3699951171875" rx="6.639999866485596" ry="8.6899995803833" fill="#3f3d56" id="svg_31"/><ellipse cx="192.5500030517578" cy="703.75" rx="6.639999866485596" ry="8.6899995803833" fill="#3f3d56" id="svg_32"/><ellipse cx="192.5500030517578" cy="693.1300048828125" rx="6.639999866485596" ry="8.6899995803833" fill="#3f3d56" id="svg_33"/><ellipse cx="192.5500030517578" cy="682.510009765625" rx="6.639999866485596" ry="8.6899995803833" fill="#3f3d56" id="svg_34"/><path d="M217.40000091552736,609.8299990844727 a32.32,32.32 0 0 0 2.47,-3.64 l-17.44,-2.87 l18.86,0.15000000000000002 a31.89,31.89 0 0 0 0.6100000000000001,-25.2 L196.59000091552736,591.3999990844727 L219.93000091552733,574.2099990844727 a31.8,31.8 0 1 0 -52.52,35.59 a32,32 0 0 0 -3.62,5.8 l22.64,11.76 l-24.14,-8.1 a31.82,31.82 0 0 0 5.12,29.86 a31.8,31.8 0 1 0 50,0 a31.82,31.82 0 0 0 0,-39.32 z" fill="#22a6b3" id="svg_35" class="" fill-opacity="1"/><path d="M160.61000091552734,629.4899990844726 a31.67,31.67 0 0 0 6.8,19.66 a31.8,31.8 0 1 0 50,0 C221.66000091552735,643.7399990844726 160.61000091552734,625.9199990844727 160.61000091552734,629.4899990844726 z" opacity="0.1" id="svg_36"/><path d="M346.5000009155273,517.2099990844727 v226 q-24.76,-1.21 -49.49,-2.91 l-7.51,-0.53 V517.2099990844727 a8.82,8.82 0 0 1 8.82,-8.82 h39.36 A8.82,8.82 0 0 1 346.5000009155273,517.2099990844727 z" fill="#3f3d56" id="svg_37"/><path d="M419.5000009155273,746.0199990844726 V366.20999908447266 a8.82,8.82 0 0 1 8.82,-8.82 h39.36 a8.82,8.82 0 0 1 8.82,8.82 v380.8 z" fill="#3f3d56" id="svg_38"/><path d="M549.5000009155274,747.2099990844727 V445.20999908447266 a8.82,8.82 0 0 1 8.82,-8.82 h39.36 a8.82,8.82 0 0 1 8.82,8.82 V746.5599990844727 z" fill="#3f3d56" id="svg_39"/><path d="M736.5000009155274,221.20999908447266 V743.5599990844727 q-28.5,0.81 -57,1.52 V221.20999908447266 a8.82,8.82 0 0 1 8.82,-8.82 h39.36 A8.82,8.82 0 0 1 736.5000009155274,221.20999908447266 z" fill="#3f3d56" id="svg_40"/><path d="M866.5000009155274,326.20999908447266 v413 c-19,0.92 -38,1.57 -57,2.15 V326.20999908447266 a8.82,8.82 0 0 1 8.82,-8.82 h39.36 A8.82,8.82 0 0 1 866.5000009155274,326.20999908447266 z" fill="#3f3d56" id="svg_41"/><polyline points="318.5 385.41 448.5 240.41 578.5 313.41 708.5 89.41 838.5 196.41" fill="none" stroke="#3f3d56" stroke-linecap="round" stroke-miterlimit="10" stroke-width="7" id="svg_42"/><circle cx="318" cy="385.4100036621094" r="28" fill="#22a6b3" id="svg_43" class="" fill-opacity="1"/><circle cx="448" cy="240.41000366210938" r="28" fill="#22a6b3" id="svg_44" class="" fill-opacity="1"/><circle cx="578" cy="313.4100036621094" r="28" fill="#22a6b3" id="svg_45" class="" fill-opacity="1"/><circle cx="708" cy="89.41000366210938" r="28" fill="#22a6b3" id="svg_46" class="" fill-opacity="1"/><circle cx="958" cy="327.4100036621094" r="28" fill="#22a6b3" id="svg_47" class="" fill-opacity="1"/><ellipse cx="233.67999267578125" cy="722.6099853515625" rx="18.68000030517578" ry="3.1600000858306885" fill="#6c63ff" opacity="0.1" id="svg_48"/><path d="M221.14000091552737,707.9399990844727 s10.65,-0.33000000000000007 13.86,-2.62 s16.39,-5 17.19,-1.35 s16,18.24 4,18.34 s-27.95,-1.8800000000000001 -31.15,-3.83 S221.14000091552737,707.9399990844727 221.14000091552737,707.9399990844727 z" fill="#a8a8a8" id="svg_49"/><path d="M256.3800009155273,721.0299990844727 c-12,0.1 -27.94,-1.87 -31.15,-3.8200000000000003 c-2.44,-1.49 -3.41,-6.82 -3.74,-9.28 h-0.35000000000000003 s0.6700000000000002,8.59 3.88,10.54 s19.12,3.93 31.15,3.83 c3.47,0 4.67,-1.26 4.6,-3.09 C260.29000091552734,720.3199990844727 258.97000091552735,721.0099990844726 256.3800009155273,721.0299990844727 z" opacity="0.2" id="svg_50"/><ellipse cx="1063.800048828125" cy="749.4099731445312" rx="34.310001373291016" ry="5.800000190734863" fill="#22a6b3" opacity="0.1" id="svg_51" class="" fill-opacity="1"/><path d="M1040.7900009155273,722.4599990844727 s19.57,-0.6000000000000001 25.47,-4.8 s30.1,-9.21 31.56,-2.48 s29.42,33.5 7.32,33.68 s-51.34,-3.44 -57.23,-7 S1040.7900009155273,722.4599990844727 1040.7900009155273,722.4599990844727 z" fill="#a8a8a8" id="svg_52"/><path d="M1105.5100009155274,746.5199990844726 c-22.1,0.18000000000000002 -51.34,-3.44 -57.23,-7 c-4.48,-2.73 -6.27,-12.53 -6.87,-17 l-0.6500000000000001,0 s1.24,15.79 7.12,19.37 s35.14,7.21 57.23,7 c6.38,0 8.58,-2.3200000000000003 8.46,-5.68 C1112.6800009155274,745.2099990844727 1110.2500009155274,746.4799990844726 1105.5100009155274,746.5199990844726 z" opacity="0.2" id="svg_53"/><path d="M849.6000009155273,344.57999908447266 a9,9 0 0 0 2,4.77 c1.45,1.6400000000000001 3.62,2.39 5.57,3.37 a22,22 0 0 1 10.76,12.37 c3.33,9.72 3.7600000000000002,20 8,29.38 s9.22,18.39 12.88,28 c2.08,5.45 3.74,11.12 6.79,16.08 a24.94,24.94 0 0 0 5.57,6.41 c-0.23,3.52 -0.32000000000000006,7 -0.30000000000000004,10.52 a4,4 0 0 1 3.42,1.8 a10.41,10.41 0 0 1 1.5,3.75 c1.37,5.67 -0.32000000000000006,11.71 0.91,17.41 a88.56,88.56 0 0 1 -3,47.64 c-1.37,3.88 -3.09,16.72 -1.6300000000000001,20.57 c5.44,-0.55 10.26,2.79 15.35,5 a21.12,21.12 0 0 1 -0.7200000000000001,9 c-1.83,5.27 -1.82,11 -1.79,16.57 l0.25,41.26 c0,5.23 0.07,10.53 1.3800000000000001,15.6 c1.49,5.71 4.62,11.53 4.52,17.43 C920.7900009155273,664.2099990844727 926.7900009155273,676.3099990844727 926.3100009155273,688.9099990844727 c-0.09000000000000002,2.42 -0.42000000000000004,4.82 -0.6500000000000001,7.22 a82.14,82.14 0 0 0 0.48000000000000004,19.19 c1.82,12.66 6.63,25.11 5.43,37.84 c-0.08000000000000002,0.8600000000000001 -0.37000000000000005,2 -1.18,2.33 c1,1.13 2.06,2.25 3.14,3.3200000000000003 a2.85,2.85 0 0 1 -0.8700000000000001,0.91 a8.84,8.84 0 0 1 -3.8200000000000003,1 a8.09,8.09 0 0 0 -4.37,1.42 a6.29,6.29 0 0 0 -1.82,3.34 a9,9 0 0 0 1.2,7.48 a8.35,8.35 0 0 0 3.39,2.54 c4.62,2 9.92,0.55 14.74,-0.91 l18.88,-5.72 a6.36,6.36 0 0 0 3.07,-1.6 a3.36,3.36 0 0 0 0.7500000000000001,-1.62 c4.17,1 8.75,-0.23 13,-1.5 l18.88,-5.73 a6.27,6.27 0 0 0 3.07,-1.6 a3.66,3.66 0 0 0 0.77,-3 c0.14,-0.06000000000000001 0.28,-0.1 0.42000000000000004,-0.17 c1.44,-0.6500000000000001 3,-1.92 2.6500000000000004,-3.45 c-0.25,-1 -1.25,-1.58 -1.6800000000000002,-2.5 a3.6100000000000003,3.6100000000000003 0 0 1 0.7000000000000001,-3.5300000000000002 c0.7400000000000001,-1 1.7400000000000002,-1.83 2.42,-2.88 c2.18,-3.34 0.7000000000000001,-7.73 -0.12000000000000001,-11.64 c-1.77,-8.35 -0.13,-17.07 -1.25,-25.53 c-0.38000000000000006,-2.85 -1.07,-5.65 -1.62,-8.48 a173.29,173.29 0 0 1 -2.31,-20.22 c-0.7200000000000001,-9.68 -3.41,-19.22 -1.87,-28.82 a111.93,111.93 0 0 0 0.9500000000000001,-17 a74,74 0 0 0 -0.47000000000000003,-10.84 c-0.39000000000000007,-2.68 -1.08,-5.3100000000000005 -1.3800000000000001,-8 a72.52,72.52 0 0 1 -0.16000000000000003,-9.09 a89.92,89.92 0 0 0 -1.86,-20.12 c-2,-9.09 -5.76,-17.79 -7.36,-26.9 c0.54,0.12000000000000001 1.08,0.24000000000000002 1.6,0.38000000000000006 c0.06000000000000001,-7 -6.07,-22.22 -8.34,-28.86 a8.39,8.39 0 0 1 -0.6000000000000001,-2.55 a27.51,27.51 0 0 1 0.6300000000000001,-3.43 c0.29000000000000004,-2.42 -1,-4.72 -1.35,-7.14 a16.75,16.75 0 0 1 0.37000000000000005,-5.08 c1.61,-8.95 3.6100000000000003,-17.83 5.61,-26.7 a28.44,28.44 0 0 0 0.8900000000000001,-9.870000000000001 a12.39,12.39 0 0 1 3,-9.83 a11.66,11.66 0 0 0 2.22,-2.79 a7.08,7.08 0 0 0 0.44000000000000006,-2.79 a44.83,44.83 0 0 0 -1.8,-12.15 c1.7600000000000002,-3.19 2.41,-7.11 2.92,-10.81 c1.12,-8.17 2.24,-16.38 2.2,-24.63 a41.75,41.75 0 0 0 -1.8,-13 a51.59,51.59 0 0 0 -3.42,-7.54 c-5.26,-10.13 -10.29,-20.79 -16.93,-30.07 c-2,-2.8200000000000003 -0.7400000000000001,-6.71 -0.6000000000000001,-10.19 c0.15000000000000002,-4.2 -1.51,-8.23 -3.14,-12.09 a19.84,19.84 0 0 0 -3.7600000000000002,-6.47 a6.11,6.11 0 0 0 -4.4,-2 a6.63,6.63 0 0 0 -4.69,2.87 a15.47,15.47 0 0 0 -2.81,11.57 a22.37,22.37 0 0 0 5.09,10.93 a24.77,24.77 0 0 0 4.39,4.17 q2.48,7.88 5,15.75 c2.64,8.35 5.28,16.74 9,24.64 c1.09,2.29 2.29,4.62 2.42,7.15 c0.14,2.73 -1,5.33 -1.9100000000000001,7.9 a55.75,55.75 0 0 0 -3.22,16.66 a5.73,5.73 0 0 0 -0.8400000000000001,0.46 c-3.15,2.06 -4.14,6.55 -7.42,8.39 c-1.9100000000000001,1.07 -4.23,1 -6.37,1.49 c-0.19000000000000003,0 -0.38000000000000006,0.1 -0.5800000000000001,0.16000000000000003 c-0.08000000000000002,-0.4 -0.16000000000000003,-0.79 -0.21000000000000002,-1.2 a3.23,3.23 0 0 1 0,-0.77 a33.59,33.59 0 0 0 12.43,-11.84 a10.83,10.83 0 0 0 1.47,-3 a11.6,11.6 0 0 0 0.15000000000000002,-3.9 a62.24,62.24 0 0 0 -1.85,-12.85 a21.37,21.37 0 0 0 -6.69,-10.89 c-1.6400000000000001,-1.32 -3.5300000000000002,-2.31 -5.16,-3.64 c-3.18,-2.5700000000000003 -5.36,-6.37 -9,-8.28 A10.83,10.83 0 0 0 936.7900009155273,386.32999908447266 a7.890000000000001,7.890000000000001 0 0 1 -2,2.54 a20.55,20.55 0 0 0 -1.86,1 c-1.1,0.8800000000000001 -1.1600000000000001,2.5700000000000003 -0.8,3.94 a41,41 0 0 1 1.1400000000000001,8.59 a21,21 0 0 0 -0.06000000000000001,27.17 c0,1.86 0,3.72 -0.07,5.58 c0,0.35000000000000003 0,0.7100000000000001 -0.07,1.06 a7.21,7.21 0 0 1 -3,-2 c-1.12,-1.4 -1.32,-3.46 -2.6900000000000004,-4.61 a7.59,7.59 0 0 0 -3.2800000000000002,-1.2 a20.37,20.37 0 0 1 -8,-3.79 c-1.85,-1.4300000000000002 -3.77,-3.26 -5.93,-3.68 a131.57,131.57 0 0 0 -13,-19.84 a38.65,38.65 0 0 1 -3.4,-4.67 c-2.15,-3.75 -2.79,-8.16 -4.15,-12.27 c-3.8,-11.52 -13.28,-20.76 -15.59,-32.68 c-0.8400000000000001,-4.32 -3.58,-8.08 -5.46,-12.06 c-1.27,-2.6900000000000004 -2.67,-5.53 -5.21,-7.07 c-3.27,-2 -7.79,-1.08 -10.51,1.61 A12.63,12.63 0 0 0 849.6000009155273,344.57999908447266 zm118.73,404.69 a8.84,8.84 0 0 1 -3.8200000000000003,1 a18.43,18.43 0 0 0 -2,0.32000000000000006 c-0.25,-2.1 -0.39000000000000007,-4.23 -0.55,-6.3 c-0.53,-6.79 -1.59,-13.53 -2.64,-20.26 c-1.1,-7 -1.62,-14.66 -4,-21.38 c-3.83,-10.94 -7.71,-22.21 -7.22,-33.8 c0.11000000000000001,-2.63 0.44000000000000006,-5.24 0.5800000000000001,-7.86 c0.32000000000000006,-6.49 -0.5900000000000001,-13.12 1,-19.43 c0.7100000000000001,-2.87 1.92,-5.61 2.38,-8.53 a40.49,40.49 0 0 0 0.1,-7.94 a105.53,105.53 0 0 1 2.27,-27.35 c1.86,2.43 2.47,5.57 3,8.58 l3.75,20.34 c2.23,12.07 4.2,24.87 10.11,35.61 c-0.8300000000000001,3.87 -1.6500000000000001,8 -0.28,11.7 c0.5900000000000001,1.6 1.56,3 2.16,4.62 c1,2.6900000000000004 0.8600000000000001,5.65 1.1600000000000001,8.5 c0.6500000000000001,6 3.13,11.9 1.31,17.69 a86.29,86.29 0 0 0 -3.63,18.36 a44.71,44.71 0 0 1 -0.6000000000000001,5.17 c-0.32000000000000006,1.54 -0.8400000000000001,3 -1.13,4.58 a15.17,15.17 0 0 0 0.29000000000000004,6.67 a13.620000000000001,13.620000000000001 0 0 1 0.8200000000000001,3.75 c0,1.28 -1.57,2.2 -2.83,2.4 c0.37000000000000005,0.48000000000000004 0.77,0.9400000000000001 1.18,1.3900000000000001 A4.38,4.38 0 0 1 968.3300009155273,749.2699990844726 z" fill="url(#e697e668-bf6d-4d5c-9412-9fae30629717)" id="svg_54"/><path d="M928.8400009155273,760.8099990844727 a8.09,8.09 0 0 0 -4.37,1.42 a6.16,6.16 0 0 0 -1.82,3.3200000000000003 a8.88,8.88 0 0 0 1.2,7.42 a8.33,8.33 0 0 0 3.39,2.5300000000000002 c4.62,2 9.92,0.54 14.74,-0.91 l18.88,-5.68 a6.34,6.34 0 0 0 3.07,-1.59 a4.17,4.17 0 0 0 0.08000000000000002,-4.86 a9.44,9.44 0 0 0 -4,-3.19 c-5.87,-2.8600000000000003 -12.49,-3.51 -18.94,-3.63 c-2.4,0 -4.77,-0.5800000000000001 -6.4,1.27 c-0.8600000000000001,1 -0.7000000000000001,2.07 -2,2.92 A9,9 0 0 1 928.8400009155273,760.8099990844727 z" fill="#3f3d56" id="svg_55"/><path d="M964.5100009155274,750.4299990844727 a8.17,8.17 0 0 0 -4.37,1.42 a6.2,6.2 0 0 0 -1.82,3.3200000000000003 a8.91,8.91 0 0 0 1.2,7.43 a8.4,8.4 0 0 0 3.39,2.52 c4.63,2 9.92,0.55 14.74,-0.9 l18.88,-5.69 a6.34,6.34 0 0 0 3.07,-1.59 a4.16,4.16 0 0 0 0.08000000000000002,-4.85 a9.47,9.47 0 0 0 -4,-3.19 c-5.88,-2.8600000000000003 -12.5,-3.52 -18.95,-3.64 c-2.4,0 -4.76,-0.5700000000000001 -6.4,1.28 c-0.8600000000000001,1 -0.7000000000000001,2.06 -2,2.91 A8.7,8.7 0 0 1 964.5100009155274,750.4299990844727 z" fill="#3f3d56" id="svg_56"/><path d="M948.1000009155273,545.5299990844727 a232.59,232.59 0 0 1 33.49,-0.9400000000000001 a6.66,6.66 0 0 1 2.17,0.3400000000000001 c2.46,1 2.84,4.22 3.07,6.85 c1,10.68 5.66,20.63 8,31.09 a88.83,88.83 0 0 1 1.86,20 a71.72,71.72 0 0 0 0.16000000000000003,9 c0.30000000000000004,2.67 1,5.29 1.3800000000000001,7.95 a73,73 0 0 1 0.47000000000000003,10.77 a110.49,110.49 0 0 1 -0.9500000000000001,16.87 c-1.54,9.53 1.15,19 1.87,28.64 A170.93,170.93 0 0 0 1001.8900009155273,696.2099990844727 c0.55,2.81 1.24,5.59 1.62,8.42 c1.12,8.41 -0.52,17.07 1.25,25.37 c0.8200000000000001,3.88 2.3,8.24 0.12000000000000001,11.56 c-0.6800000000000002,1 -1.6800000000000002,1.85 -2.42,2.8600000000000003 a3.5700000000000003,3.5700000000000003 0 0 0 -0.7000000000000001,3.51 c0.43000000000000005,0.91 1.4300000000000002,1.51 1.6800000000000002,2.48 c0.39000000000000007,1.53 -1.21,2.7800000000000002 -2.6500000000000004,3.43 c-10.85,4.9 -24.84,1.45 -32.16,-7.94 c1.26,-0.2 2.8,-1.11 2.83,-2.39 a13.5,13.5 0 0 0 -0.8200000000000001,-3.72 a15,15 0 0 1 -0.29000000000000004,-6.62 c0.29000000000000004,-1.54 0.81,-3 1.13,-4.55 a44.2,44.2 0 0 0 0.6000000000000001,-5.14 a85.21,85.21 0 0 1 3.63,-18.24 c1.82,-5.75 -0.6600000000000001,-11.57 -1.31,-17.57 c-0.30000000000000004,-2.84 -0.17,-5.77 -1.1600000000000001,-8.45 c-0.6000000000000001,-1.58 -1.57,-3 -2.16,-4.58 c-1.37,-3.6900000000000004 -0.55,-7.79 0.28,-11.63 c-5.91,-10.67 -7.88,-23.39 -10.11,-35.38 l-3.75,-20.2 c-0.56,-3 -1.17,-6.11 -3,-8.53 a104.16,104.16 0 0 0 -2.27,27.17 a40,40 0 0 1 -0.1,7.890000000000001 c-0.46,2.9 -1.6700000000000002,5.63 -2.38,8.47 c-1.55,6.27 -0.6400000000000001,12.85 -1,19.3 c-0.14,2.6100000000000003 -0.47000000000000003,5.2 -0.5800000000000001,7.8100000000000005 c-0.49000000000000005,11.52 3.39,22.72 7.22,33.59 c2.35,6.67 2.87,14.25 4,21.23 c1,6.69 2.11,13.38 2.64,20.13 c0.49000000000000005,6.2 0.7100000000000001,12.91 4.57,17.78 c-3.5300000000000002,2.29 -7.17,4.62 -11.3,5.41 a20.86,20.86 0 0 1 -13.92,-2.7 a43.79,43.79 0 0 1 -11,-9.35 c0.81,-0.28 1.1,-1.46 1.18,-2.31 c1.2,-12.66 -3.6100000000000003,-25 -5.43,-37.6 a81,81 0 0 1 -0.48000000000000004,-19.06 c0.23,-2.39 0.56,-4.78 0.6500000000000001,-7.18 c0.48000000000000004,-12.51 -5.55,-24.56 -5.33,-37.08 c0.1,-5.87 -3,-11.65 -4.52,-17.32 c-1.31,-5 -1.35,-10.3 -1.3800000000000001,-15.5 l-0.25,-41 c0,-5.54 0,-11.22 1.79,-16.45 c2.2,-6.3 -0.32000000000000006,-13.53 -0.7000000000000001,-20.19 A83.22,83.22 0 0 0 948.1000009155273,545.5299990844727 z" fill="#696791" id="svg_57"/><path d="M912.4500009155273,427.72999908447264 a130.66,130.66 0 0 0 -15.31,-24.17 a38.33,38.33 0 0 1 -3.4,-4.640000000000001 c-2.15,-3.73 -2.79,-8.11 -4.15,-12.19 c-3.8,-11.44 -13.28,-20.63 -15.59,-32.46 c-0.8400000000000001,-4.3 -3.58,-8 -5.46,-12 c-1.27,-2.67 -2.67,-5.49 -5.21,-7 c-3.27,-2 -7.79,-1.08 -10.51,1.6 a12.49,12.49 0 0 0 -3.22,10.55 a8.93,8.93 0 0 0 2,4.74 c1.45,1.6300000000000001 3.62,2.37 5.57,3.35 a21.88,21.88 0 0 1 10.76,12.29 c3.33,9.65 3.7600000000000002,19.87 8,29.19 s9.22,18.26 12.88,27.79 c2.08,5.41 3.74,11 6.79,16 s7.8100000000000005,9.19 13.56,9.94 A33.45,33.45 0 0 1 910.7900009155273,440.03999908447264 C912.0400009155273,436.09999908447264 914.2600009155274,431.45999908447266 912.4500009155273,427.72999908447264 z" fill="#a0616a" id="svg_58"/><path d="M974.3600009155274,435.20999908447266 a55.26,55.26 0 0 1 3.25,-20.78 c0.92,-2.55 2,-5.14 1.9100000000000001,-7.85 c-0.13,-2.52 -1.33,-4.83 -2.42,-7.11 c-3.7600000000000002,-7.85 -6.4,-16.17 -9,-24.47 l-5,-15.65 a24.31,24.31 0 0 1 -4.39,-4.15 a22.1,22.1 0 0 1 -5.09,-10.86 a15.25,15.25 0 0 1 2.81,-11.48 a6.65,6.65 0 0 1 4.69,-2.8600000000000003 a6.14,6.14 0 0 1 4.4,2 a19.71,19.71 0 0 1 3.7600000000000002,6.42 c1.6300000000000001,3.84 3.29,7.84 3.14,12 c-0.14,3.46 -1.4300000000000002,7.32 0.6000000000000001,10.13 c6.640000000000001,9.22 11.67,19.81 16.93,29.88 a50.56,50.56 0 0 1 3.42,7.49 a41.19,41.19 0 0 1 1.8,12.94 c0,8.19 -1.08,16.35 -2.2,24.47 c-0.7100000000000001,5.09 -1.6400000000000001,10.63 -5.49,14 C983.4800009155274,444.20999908447266 979.4600009155273,439.20999908447266 974.3600009155274,435.20999908447266 z" fill="#a0616a" id="svg_59"/><circle cx="948.9199829101562" cy="418.3599853515625" r="20.75" fill="#a0616a" id="svg_60"/><path d="M958.9700009155273,440.20999908447266 c0.5,3.75 2.51,7.11 4.47,10.35 c1.18,2 2.6900000000000004,4.13 5,4.35 a100.79,100.79 0 0 1 -18.85,7.58 a21.32,21.32 0 0 1 -6.88,1.11 a16.83,16.83 0 0 1 -5.73,-1.47 A28.49,28.49 0 0 1 920.7900009155273,443.20999908447266 a37.6,37.6 0 0 0 7.71,-0.5900000000000001 a5.67,5.67 0 0 0 3.7800000000000002,-1.86 a6,6 0 0 0 0.78,-3.34 c0.1,-3.46 0.11000000000000001,-6.93 0,-10.39 a41,41 0 0 1 15.08,1.86 c2,0.6500000000000001 4,1.4300000000000002 6,1.94 c1.26,0.32000000000000006 4.73,0 5.66,0.7300000000000001 C961.3300009155273,432.58999908447265 958.6200009155274,437.65999908447264 958.9700009155273,440.20999908447266 z" fill="#a0616a" id="svg_61"/><path d="M949.8500009155273,452.81999908447267 A13.06,13.06 0 0 1 959.7900009155273,441.20999908447266 c2.14,-0.48000000000000004 4.46,-0.42000000000000004 6.37,-1.48 c3.2800000000000002,-1.83 4.27,-6.29 7.42,-8.34 s7.62,-0.91 10.36,1.6800000000000002 s4.13,6.28 5.25,9.89 a50.06,50.06 0 0 1 2.6900000000000004,15.15 a7,7 0 0 1 -0.44000000000000006,2.77 a11.56,11.56 0 0 1 -2.22,2.77 a12.26,12.26 0 0 0 -3,9.77 a28,28 0 0 1 -0.8900000000000001,9.8 c-2,8.82 -4,17.63 -5.61,26.53 a16.47,16.47 0 0 0 -0.37000000000000005,5 c0.31000000000000005,2.41 1.6400000000000001,4.69 1.35,7.1 a26.87,26.87 0 0 0 -0.6300000000000001,3.41 a8.27,8.27 0 0 0 0.6000000000000001,2.5300000000000002 c2.27,6.59 8.4,21.69 8.34,28.67 c-10.65,-2.73 -26.35,-3.34 -37.35,-3.39 a83.11,83.11 0 0 0 -9.06,0.4 c-7.23,0.78 -14.63,2.89 -21.64,0.9400000000000001 c-6.51,-1.81 -12.27,-7 -19,-6.35 c-1.46,-3.8200000000000003 0.26,-16.57 1.6300000000000001,-20.43 a87.44,87.44 0 0 0 3,-47.33 c-1.23,-5.66 0.46,-11.67 -0.91,-17.29 a10.31,10.31 0 0 0 -1.5,-3.73 a4,4 0 0 0 -3.42,-1.79 a127.39,127.39 0 0 1 2.5,-26.93 c0.6600000000000001,-3.15 2,-6.87 5.23,-7.41 c2.8600000000000003,-0.49000000000000005 5.26,1.9300000000000002 7.5600000000000005,3.7 a20.31,20.31 0 0 0 8,3.7600000000000002 a7.59,7.59 0 0 1 3.2800000000000002,1.2 c1.37,1.1400000000000001 1.57,3.19 2.6900000000000004,4.58 c2,2.49 6.47,2.2800000000000002 7.890000000000001,5.15 a19.61,19.61 0 0 1 0.7500000000000001,2.62 a9.620000000000001,9.620000000000001 0 0 0 3.3,4.26 A18.56,18.56 0 0 0 949.8500009155273,452.81999908447267 z" fill="#f86d70" id="svg_62"/><path d="M932.0600009155273,396.29999908447263 c-0.36000000000000004,-1.37 -0.30000000000000004,-3 0.8,-3.92 c0.55,-0.43000000000000005 1.27,-0.5900000000000001 1.86,-1 a8,8 0 0 0 2,-2.5300000000000002 a10.86,10.86 0 0 1 13.59,-3.45 c3.6100000000000003,1.8900000000000001 5.79,5.67 9,8.22 c1.6300000000000001,1.32 3.52,2.3 5.16,3.62 a21.21,21.21 0 0 1 6.69,10.82 a61.39,61.39 0 0 1 1.85,12.76 a11.48,11.48 0 0 1 -0.15000000000000002,3.88 a10.86,10.86 0 0 1 -1.47,3 c-3.3,5 -7.65,9.54 -13.1,12.12 s-12.08,3 -17.46,0.30000000000000004 a3,3 0 0 1 -1.34,-1.07 a3.85,3.85 0 0 1 -0.21000000000000002,-2.31 a15.81,15.81 0 0 0 -1.7400000000000002,-8.85 c-1,-2 -2.5,-3.72 -3.3,-5.79 a20.17,20.17 0 0 1 -0.9400000000000001,-7.18 C933.2100009155273,408.6299990844727 933.6400009155274,402.35999908447263 932.0600009155273,396.29999908447263 z" fill="#2d293d" id="svg_63"/></g></svg>